<svg xmlns="http://www.w3.org/2000/svg" xmlns:xlink="http://www.w3.org/1999/xlink" viewBox="0 0 60 76" fill="#fff" fill-rule="evenodd" stroke="#000" stroke-linecap="round" stroke-linejoin="round"><style><![CDATA[.B{fill-rule:nonzero}.C{fill:#36602e}.D{fill:#6a9644}]]></style><use xlink:href="#A" x=".5" y=".5"/><symbol id="A" overflow="visible"><g stroke="none" class="B C"><path d="M44.203 20.543c.787-.306 1.528-2.401 2.039-2.475.493-.082.607 1.485 1.266 1.325s1.133-1.884 1.891-1.71c.753.178 1.215 1.478 2.02 1.329.823-.146 1.907 1.45 1.661 1.898s-1.562.068-1.53.759c.034.698 2.023 3.391 1.152 3.227s-.347 1.45-1.514 1.514c-1.199.082-.18-2.251-.773-2.269-.589-.032-.707 1.432-1.644 1.314-.955-.096-.164-1.542-1.019-1.699-.855-.149-1.019.666-1.891.573s-1.265 1.111-2.039.748c-.755-.342-.23-2.301.379-2.465.623-.153-.773-1.781 0-2.069z"/><path d="M57.469 26.64c-.426-1.414-.246-2.522-.871-2.654-.641-.132-.823-.502-1.15-.381s-.032 1.161-.759 1.136c-.737-.007-.048-1.767-.903-1.71-.821.075-1.446-.057-2.135.196s-.841-.648-1.53-.573c-.657.075.082.83-.493 1.14-.591.313-.955-.046-1.646.192-.705.246.248 3.213-.638 3.419-.891.203.064 1.963.755 1.898.691-.075.509-1.482 1.134-1.532.625-.032 1.183.972 1.904 1.532.743.556 1.4-1.45 1.777-.577s1.086.527 1.907 1.143c.803.609 3.074-1.817 2.647-3.231zm-27.72 10.247c-.443-1.403-.271-2.522-.896-2.654s-.814-.502-1.133-.377c-.33.114-.042 1.151-.755 1.133-.743-.014-.059-1.774-.889-1.706-.856.064-1.471-.061-2.155.196-.698.246-.854-.641-1.512-.577-.689.075.069.83-.517 1.136-.582.313-.961-.05-1.642.196-.708.246.254 3.206-.641 3.412-.881.207.073 1.963.755 1.899.69-.068.525-1.482 1.143-1.514.634-.05 1.175.962 1.907 1.514.724.559 1.39-1.439 1.767-.559.369.873 1.085.527 1.899 1.136s3.098-1.809 2.671-3.234z"/><path d="M49.808 30.452c.757.994 1.234 2.746.329 2.625-.923-.125.492 2.251-1.005 1.628-1.496-.634-3.252 2.49-4.011.994-.737-1.496-1.592 2.44-2.666 1.628-1.076-.823-2.417 1.247-3.247 1.247-.837 0-.335-1.247-1.093-1.122-.748.121-1.001 2.875-1.752 1.881-.744-1.005-1.66.37-2.661-.759-1.005-1.122 0 3.633-1.005 3.003-1.001-.616-2.085-.502-2.835-.37-.745.125-.501-.627-.328-1.742.163-1.136-1.003-.755-1.67-1.514-.673-.755.915-.377 1.332-.873s-1.421-1.749-.918-2.753c.502-.994 1.419-.748 2.085-.253.667.509.585-2.497.994-1.998.42.502.673-.627 1.512-.121.832.502.839-3.501 1.587-2.622s2.162 0 2.582.748 1.421.506 2.169 1.368c.741.883.996-2.49 1.834-1.749.83.755 2.928.509 3.159 1.382.246.873 2.087-3.256 2.433-2.746.328.495 1.167.623 1.496 1.489.328.88.905-.37 1.676.631z"/></g><path d="M27.317 55.442c-.094.822.384 3.779.235 5.72-.156 2.187-.113 4.356.043 6.561.074.994.748 2.792.328 3.711-.527 1.232-.559.167-1.61 1.012-.337.278-.873.88-.445 1.243.429.353 2.269-.15 2.912.285.639.452 1.692-1.044 2.448-.78.757.246.846.467 1.341.78.508.321 1.389.848 2.233.702.855-.167.239-1.2.23-2.23-.041-1.026-1.733-1.717-1.783-2.671-.221-3.22-.969-6.394-1.314-9.599-.413-3.929.175-8.295.634-12.214.171-1.546.246-2.087 0-4.2s-.035-3.312.68-3.954c.684-.659-.05-1.678 1.553-2.483s2.985-1.841 3.938-1.98c.953-.125 2.901-3.48 4.23-3.708s5.34-4.411 5.34-4.411l3.735-5.752s-8.171 8.767-9.432 8.931-4.071 2.183-5.352 2.967c-1.291.784-4.012 1.232-4.012 1.232s-.189-2.13.607-2.967c.798-.823 2.506-1.496 3.176-2.465.646-.976 1.329-4.702 1.329-4.702s-1.742 2.718-2.447 3.459c-.698.734-2.442.994-2.442.994s-.839-2.209-.673-4.207c.166-2.005-.774-9.742-.774-9.742l-1.942 1.345S29.444 30.387 29 30.897c-.435.509-1.363 1.286-1.347 1.724.048.449-.248 1.254 0 1.984.255.73.912 1.585 1.127 2.226.212.652-.232 1.98-.232 1.98s-3.676-1.98-4.481-2.963c-.771-.99-4.364-7.555-4.364-7.555l4.339 8.538c.518.766 4.284 3.469 4.284 3.469l-.222 3.462s-2.68-2.23-4.037-3.954C22.745 38.074 9.553 29.671 9.553 29.671l13.283 10.401c.541.278 4.766 6.789 5.079 7.398.732 1.329-.074 4.602-.279 6.03-.304 2.006-.225 1.119-.32 1.942z" stroke="#231f20" stroke-linejoin="miter" fill="#b59979" stroke-width=".149" class="B"/><g stroke="none"><path d="M28.781 25.326c.745 1.001 1.247 2.753.337 2.629-.923-.132.493 2.251-1.012 1.628-1.487-.627-3.248 2.49-4.004 1.001-.748-1.503-1.587 2.433-2.663 1.614-1.078-.805-2.418 1.257-3.256 1.257-.83 0-.337-1.257-1.086-1.126s-1.001 2.878-1.749 1.874-1.661.377-2.671-.748c-.996-1.126 0 3.622-.996 2.999-1.011-.623-2.095-.499-2.843-.377-.748.132-.502-.623-.329-1.752s-1.004-.748-1.67-1.496c-.664-.755.913-.37 1.341-.876.411-.495-1.423-1.745-.921-2.746.492-1.004 1.422-.755 2.079-.249.674.495.592-2.497.995-2.005.435.506.682-.623 1.512-.121s.831-3.505 1.587-2.629c.747.876 2.161 0 2.574.748.426.755 1.429.506 2.177 1.378s1.003-2.497 1.833-1.749c.839.748 2.926.499 3.173 1.371.255.88 2.088-3.245 2.427-2.746.319.502 1.157.627 1.504 1.496.329.872.903-.378 1.661.627z" class="B C"/><path d="M.125 26.376c-.173-.922-.312-2.023.625-2.465.953-.445 1.447-2.992 2.03-2.664.592.346 2.152-.477 2.532-.566.394-.089.214-1.817.624-1.703.436.1.272 1.678.774 1.703s.855.089 1.257 0c.411-.089.288-1.453.386-1.898.107-.445.139-1.703-.765-1.136-.878.559-1.661.296-2.152 0-.476-.313-.338-1.61-.255-1.888.107-.299.755.014.755-.395.018-.395-.755-.937-.755-.937s-.182-1.464.131-1.532.642.709 1.143.577 1.208-.246 1.512 0c.322.246.117 1.931.386 2.091.28.146.757 0 .757 0s.436-.677.634-.755c.221-.093.228.456.762.374.543-.1.058-.552.51-.573.444-.018.83.271 1.134 0 .313-.271-.14-.89.131-1.332.263-.445 1.133 0 1.133 0a4.97 4.97 0 0 0 .633.762c.33.299.107-.046.634 0 .541.043-.437-2.226.263-2.276.69-.05 1.331.705 1.265 1.133-.074.449.509.199.871 0 .387-.178-.443-1.987.133-2.084.59-.1 1.716.246 1.661.762-.073.52 1.256.114 1.768.377.5.256.435 1.275.885 1.521s1.175-.114 1.512.378c.346.488 1.375-.082 1.777.958.401 1.029-3.766 8.413-4.174 8.723-.43.306-2.146-.328-2.663-.385-.512-.057-.684-2.112-1.013-2.276-.337-.164.575 4.784 0 5.129-.582.338-2.343-.353-2.787.189-.46.534-1.914-.684-2.029-1.329-.107-.652.543-1.393.773-1.329.205.05-.058-.456 0-1.147.04-.677 1.298-.207 1.38-.755.074-.545-1.199-.72-1.52-.559-.321.146-.262-1.318-.633-1.154-.361.182-.411.481-.756.766-.346.278-.337-.534-.757-.388-.427.167-.007 1.77-.624 1.909-.632.128-.149 2.821-.517 3.412-.378.598-.922.534-1.53.385-.582-.164.1-1.25-.5-1.332-.591-.082-1.364.591-1.769.57-.41-.028-.443 1.058-.887 1.14-.452.082-.418-.741-.888-.762-1.126.221-.624.185-.624.185s-.617-.666-1.028-.563c-.403.103-.272 1.435-.624 1.517s-1.348.534-1.521-.378z" fill="#557f3a" class="B"/><path d="M1.597 27.766C.998 28.03.25 29.697 1.08 30.42c.83.741 1.223 2.703 1.775 2.475.567-.239 2.598 2.394 3.173 1.703.559-.691 3.264-2.141 3.411-3.223.149-1.094-2.555-2.201-3.032-1.906-.494.313-.708-1.457-1.019-1.325-.305.143-.048 1.539-.632 1.71-.576.171-1.546.207-1.899.189s-.673-2.54-1.257-2.276z" class="B D"/><path d="M9.686 39.745c-.37-.424-.501-2.7-.518-3.273-.025-.898.723-.378 1.143-.577.426-.196-.51-.196-.379-1.133.123-.937 1.331-.841 1.776-.755.436.064.492.937 1.01.944.518 0-.344-2.062.378-2.465.725-.413 1.159.025 1.776 0 .608-.032.403-1.507.756-1.325.354.164.173.321.879 0 .724-.335-1.338-1.841-1.889-1.906-.553-.05-.715-1.874-.642-2.465.089-.595.107-.805.642-.766.533.05 1.84-.42 1.889 0 .067.427 1.25 1.866 1.646 1.528.41-.353-.757-1.457-.757-1.899 0-.46.28-1.083.757-1.151.501-.057 1.661-.673 1.913 0 .249.691 1.867.987 1.891 1.906s-.13 2.255-.888 2.087-.606 1.842-1.134 1.902c-.535.053-1.421-.192-1.652 0-.223.171-.526 1.354 0 1.517.528.157 1.775-1.051 1.898-.196.133.855.65.791 1.151.766.484-.032.096-1.767.756-1.71.639.05 1.469 1.496 1.265 1.899-.189.395.204 2.283 0 2.654-.189.37-1.011.007-1.398.189s-.46-.331-1.002-.377c-.551-.057-.995-.559-1.274 0-.626 1.232-.83 3.092-2.427 1.478-.197-.196-1.001-1.987-.615-2.233-.501.31-1.289.057-1.512.377-.221.31.402.698.881.755.468.057-.634 2.896 0 3.035.64.157-1.003-.388-1.136 0-.14.402.305 1.521 0 1.717-.303.182-1.496-.566-1.907 0-.263.36-.748-.36-.855-.591.386.798-2.046.524-2.424.068z" fill="#57853c" class="B"/><path d="M4.359 25.95c.296.345 1.224-1.379 1.891-1.528.665-.132-.058-1.143.254-1.514.321-.36 1.825.381 2.153.577.338.182 1.299-.709 2.03-.577.725.132 2.072 1.678 1.899 2.468-.164.787-2.145 2.515-2.786 2.276s-1.159 2.425-1.768 2.475c-.616.039-.756-.463-1.019-1.154-.28-.68-2.038-1.322-2.038-1.322s-1.102-.029-1.25-.566c-.147-.545.33-1.489.634-1.136zm7.652-14.301c.255 1.051 1.454.328 1.891.2.443-.15-.091-1.4.253-1.336.363.068 1.103-.196 1.399 0 .297.182-.034.855.508 1.514.543.666 2.541-.541 2.92 0 .369.548-.485.484-.758 1.136-.288.666-.65 1.774.108 2.094.772.321.598 1.603 1.019 1.71.428.107 1.215.509 1.785 0 .55-.52-.312-2.03.245-1.899s1.406-.641 2.031-.196c.615.456.748-2.632 1.39-2.646s-.814-3.964-.256-3.997c.567-.025-.247-2.137-.754-2.269s-.512.516-1.013.755c-.519.232-1.817.114-2.038-.378-.206-.509 1.604-.919 1.668-2.087.034-1.182-.59-2.119-1.272-1.898-.7.221-.758-1.257-1.151-1.143-.378.125-.206.541-.633 1.332-.421.791-.689.1-1.259.189s-.032.816-.64 1.325c-.599.517-1.102-.509-1.519 0-.412.517-1.786-.509-2.03 0-.215.517-.082.894.394 1.329.467.445 1.562.068 2.014.199.46.114.641.905.263 1.514-.395.606-.74.153-1.397.378s.921 1.183.378 1.329c-.534.15-1.332.103-1.777.192-.426.078-.378.94-.378.94s-1.651.663-1.388 1.713z" class="B D"/><path d="M22.14 11.648c-.528-.196-1.226-1.585-.379-1.713.846-.11 1.727-.755 2.276 0 .575.759 1.232-1.393 1.898-.755.684.645.535-2.183 1.143-1.888.623.278 1.347-1.692 1.642-1.143.305.552 1.589.452 2.154.566.577.114-.648.545-.245 1.332.402.773 1.043 1.133 1.645 1.888.597.759-.948 1.186-.513 2.29.445 1.101-1.995-.378-2.652-.759-.66-.395-.626.905-1.39.937-.774.05-.856.346-1.53.378-.666.043-.099 1.257-.87 1.528-.79.264-.43-.531-1.151-.378s-.125-1.2-.509-1.706c-.379-.527-.978-.378-1.519-.577z" class="B C"/><path d="M28.417.364c-.501-.142-2.343-.356-3.05 0-.698.349.369 1.813-.247 1.899-.616.078-1.437 1.165-1.906.182-.468-.972-1.406.385-1.397.951.009.577 1.118 1.742 1.528 2.283s-.93.613-.755 1.329c.156.712.689.185 1.142.94.436.773-1.044 1.923-.517 2.468.542.556 1.604.328 2.286 0 .673-.321-.427-2.607.254-2.647.666-.05 1.374.032 2.022-.199.649-.221-.387-1.938.378-2.087.775-.139.956-2.28 1.899-2.087.954.196 1.399-1.496.888-2.087-.517-.595-1.181.36-1.767.377-.583.032-.28-1.183-.756-1.322z" fill="#4b7b39" class="B"/><path d="M35.158.222c.625-.427 1.184-.114 1.505-.064.584.082-.602 1.973-.134 2.269.477.296.734.214 1.151.755.404.559.709-.435 1.512-.377.823.068-.303 1.364 0 1.71.321.346 3.035.428 3.811.755.773.346 1.151 1.464.623 1.906-.54.431-2.109-.31-2.782 0-.682.314.077 1.482-.632 1.895-.7.406-1.17.335-1.651-.182-.477-.527-.545.153-1.005.755-.467.591-.823.025-1.272 0-.445-.032-.577 1.051-1.022 1.329-.427.264-1.083.1-1.517-.196-.413-.296-.093-.873-.502-1.521-.411-.641-.716-1.126-1.389-1.143-.691 0-.511.794-1.152.958-.624.16-1.882-2.354-1.247-2.657.623-.303.305-2.753.878-2.654s.792-.627 1.144-.755c.353-.15.253.905 1.133.755.896-.167-.107-2.03 1.005-2.091.517-.032 1.051-1.1 1.544-1.446z" fill="#629740" class="B"/><path d="M49.118 11.078c.427.495-.296.915-.889 1.325-.593.42-1.79-1.051-2.021-.556-.246.474-.889-.759-1.398-.381-.508.36.098.413-.132 1.136s-.721.032-1.149.559c-.411.542.673 1.528 0 2.095-.659.566-1.378.837-2.15 1.322-.757.495.434 2.942-.493 2.468-.937-.47-1.307 1.382-2.283.762-.988-.609-1.834 1.646-2.789 1.521-.948-.132-1.437-3.056-2.276-2.661-.84.41-1.044-1.941-2.278-1.514-1.224.413-1.151 1.496-1.65 1.71-.493.214-1.134-1.357-2.015-.577-.904.791-.823-1.207-1.274-2.265-.46-1.072.624-1.382-.132-2.468-.748-1.101.361-1.973 1.011-2.476.665-.499 1.069 1.418 2.031 1.524.969.096.492-1.892 1.522-1.713s1.774.973 2.532.958c.752-.021.794-1.154 1.651-1.154.846 0 .426.923 1.512 1.154 1.093.21 1.044-1.663 1.774-1.913.723-.235 1.225-1.888 1.776-1.322.543.566-.198 1.225.246 1.899.459.677 1.085.841 1.53.759.445-.075-.524-1.603.125-1.899s.385.549 1.4 0c1.004-.552.346-2.123 1.004-2.08.655.032.114 1.115.887 1.321s.937.043 1.528.189c.577.149-.1 1.022.363 1.514.459.509 1.592.263 2.037.762z" fill="#5a823a" class="B"/><path d="M52.538 16.201c.673.135.805-1.542.492-2.269-.31-.737-1.296-1.165-1.758-.769-.461.41-1.33 1.133-2.037 1.147-.673.018-.412-.919-1.005-.755-.593.149-.262 1.136-1.019 1.703s-1.052.057-2.285.189c-1.217.132-.887-1.282-1.628-1.332-.752-.032-.727 1.71-2.034 1.71-1.314 0-.125 2.201-.377 3.223-.264 1.037-.757-1.136-1.521-.182-.762.944-1.742-1.742-2.276-.955-.561.791-1.072.627-1.275 1.521-.196.898-2.201 1.029-2.529 1.899s-1.902-1.001-2.781-.196c-.894.823-1.66 2.265-1.784 3.042-.107.773.978 1.279 1.029 2.661.034 1.364 2.187 2.946 3.035 2.657.83-.288-.759-3.922 0-3.231s2.144-.303 2.785.196c.634.492.741-2.803 1.644-1.906s3.528.246 4.429.566c.905.328.109-2.885.634-2.465.513.42 1.631-.93 2.29-.57.639.363.442-1.151 1.117-1.329.705-.182.444.321 1.149.378.709.064.233-2.86 1.15-2.269.906.584 2.337-.987 3.028-.766.705.224.31-.766 0-1.521-.299-.755-.395.014-1.004 0-.623 0-.46-1.012.379-1.133s1.462.641 2.153.755z" fill="#58853c" class="B"/><path d="M58.49 19.431c.559-.979.164-2.176-.641-1.71-.791.47-.727-3.427-1.628-3.412-.923.018-.823 2.03-1.66 2.091-.839.046-.346 1.617-1.019 1.888-.659.281-1.268.954-2.023.199-.757-.766-2.171.655-2.533 0-.361-.666-1.184-.47-1.642-.199-.459.281-.727 2.276-.381 2.276.331.011 1.019 1.293.627 1.713-.379.417-1.841 1.222-2.401.378-.559-.83-.459 1.881-1.02 1.717-.543-.171-2.782-.873-3.407-1.528-.641-.641-1.421.919-2.03.951-.616.028-1.272-1.296-2.151-1.14-.883.164-.915 2.671-1.275 3.426-.353.741-1.175 1.635-1.891.755-.716-.887-.812.395-1.264.755s-.306 2.451.125 2.657c.424.199 3.138-.566 3.772-.37.648.2.089 1.973 1.044 2.458.935.484 1.945-.224 2.775.566.839.791 1.236-2.215 2.536-2.087 1.29.132-.47-1.696 0-2.646.47-.969 1.143-2.194 1.902-1.151.738 1.051 1.66 2.383 2.415 2.476.741.071 2.137-1.767 2.91-2.476.757-.691-.707-1.61-.773-2.842s.427-1.941 1.019-1.521 1.036 1.375 1.891 1.521c.869.146 1.118-2.96 2.021-2.468.938.495 2.253.652 3.042.57.803-.075-.529-1.457.148-1.713.656-.235.937-.146 1.514-1.133z" fill="#57853c" class="B"/><path d="M56.221 33.575c-.445-1.414-.264-2.522-.889-2.661-.643-.118-.821-.495-1.135-.378-.328.132-.048 1.158-.757 1.143-.737-.018-.048-1.77-.885-1.703-.856.064-1.482-.068-2.155.182-.707.26-.855-.645-1.512-.57-.691.075.064.83-.526 1.143-.577.313-.955-.046-1.646.182-.689.253.264 3.22-.641 3.419-.871.214.082 1.973.773 1.906.673-.082.509-1.478 1.133-1.528.627-.036 1.186.972 1.909 1.528s1.396-1.446 1.76-.573c.395.869 1.085.524 1.906 1.14s3.092-1.816 2.664-3.231z" class="B C"/><path d="M33.051 8.938c.775.573 2.732-1.745 3.291-1.332.574.41.641-2.45 1.266-1.909.641.559 2.702-1.051 3.04-.182.344.873 1.19.16 1.143 1.136-.041.987-2.253.556-1.9 1.71s1.01.89 1.273 1.71c.257.819-.205 1.724-1.019 1.521-.805-.207-1.824.83-2.538 0-.693-.83-.75 1.617-1.391 1.521-.648-.11-.285-.559-.631-1.136-.331-.591-1.209.955-2.023 0-.823-.951-2.926 1.069-3.166.182-.246-.894 1.011-1.792 1.011-2.465 0-.684-1.61-.477-.88-1.136.716-.666 1.753-.207 2.522.381z" fill="#427035" class="B"/><path d="M25.285 41.533l.764-1.514s.675-.274 1.504-.292c.823-.018-.329-1.564 0-2.173.321-.599.996-.68 1.408-.573.41.096-.658-1.898 0-1.898.666 0 2.127.103 1.52-.566-.602-.673 1.273-1.521 1.003-2.287-.239-.755-.83-1.24-1.511-.947-.675.31-.94 1.877-1.512 1.713-.586-.168-.865-1.012-1.012-2.087-.156-1.079-1.48-.716-1.785-1.703-.297-1.005-1.07-1.553-1.637-1.71-.575-.164-.039 1.183-.886 1.322-.854.139-.872 1.663-1.645 1.902-.789.239.987 2.579 1.38 3.22.411.641 1.315.748 1.784.385.46-.37.048-2.315.509-2.276.453.032.041 1.874.626 1.891.573.014-.018 3.437-.759 3.042-.755-.402-1.05.395-1.897 0-.854-.402-1.432 1.446-1.028 2.087.427.641 1.15.114 1.914.378.759.264-.607 1.414-.132 2.087s1.389 0 1.389 0z" class="B C"/><path d="M18.092 23.228c.838-.153.174-2.276.758-2.276s.353.367 1.011 0c.657-.377-.157-1.799.387-1.906.517-.1.575-.014 1.133 0 .559.032.461-2.454 1.027-2.08.535.353 1.235-.994 1.512 0 .272.976.766 1.934 1.768 1.899s1.381-2.005 2.154-1.531c.771.495 1.881-.591 2.499.463.608 1.029 1.413.1 1.809 1.069.377.954 2.251-.609 2.531-.378.279.214 1.06 3.37.5 3.598-.557.246-1.143.89-1.642 0-.509-.887-1.801-.769-2.408-1.521-.602-.745-.602 2.443-1.135 2.664-.541.224-1.15-.862-1.519-.573-.37.306 1.724 1.257 1.386 1.899-.328.641-1.034 1.881-1.643 1.136-.601-.741-1.773-.185-2.407-.947-.633-.755-.165 1.208-1.011 1.143-.855-.068-1.695 2.86-2.287 2.283-.575-.591-2.309 1.727-2.531.755-.206-.969-1.389-1.151-1.389-1.906s-1.374-1.086-.889-1.514c.477-.428-.477-2.127.386-2.276z" fill="#4b7b39" class="B"/><path d="M21.249 21.511c.438.691.939-.691 1.4-.559.459.125.229 1.282.764 1.325.535.053.83-1.457 1.767-1.325.936.125 2.012 1.037 1.396 1.703-.64.67-.738 2.753-1.396 2.087-.65-.666-.89-.712-1.521-.755-.641-.032-.641 1.685-1.519 1.133-.874-.541-1.59-.862-1.891-1.325-.314-.47.575-2.956 1-2.283z" class="B D"/></g></symbol></svg>