<svg xmlns="http://www.w3.org/2000/svg" xmlns:xlink="http://www.w3.org/1999/xlink" viewBox="0 0 50 76" fill="#fff" fill-rule="evenodd" stroke="#000" stroke-linecap="round" stroke-linejoin="round"><style><![CDATA[.B{fill-rule:nonzero}.C{fill:#6a9644}]]></style><use xlink:href="#A" x=".5" y=".5"/><symbol id="A" overflow="visible"><g stroke="#231f20" stroke-linejoin="miter" fill="#b59979" stroke-width=".15" class="B"><path d="M27.027 30.484c1.33-.686 2.475-1.561 3.27-1.683.794-.113 2.391-2.925 3.495-3.128 1.111-.203 4.708-2.526 4.708-2.526l1.661-2.925s-5.623 4.281-6.675 4.426-3.377 1.857-4.44 2.52c-1.069.66-3.337 1.06-3.337 1.06s-.173-1.776.482-2.482c.659-.692 2.081-1.266 2.629-2.083.536-.82 1.073-3.933 1.073-3.933l-2.015 2.908c-.578.617-2.03.852-2.03.852s-.717-1.842-.596-3.508c.123-1.674-.802-5.764-.802-5.764l-1.86.017s-.089 10.506-.456 10.934c-.358.426-1.127 1.08-1.11 1.448.046.371-.197 1.046.015 1.654.219.608.773 1.315.958 1.848.184.542-.177 1.657-.177 1.657s-3.082-1.625-3.76-2.442c-.653-.814-3.7-6.268-3.7-6.268s3.241 6.459 3.687 7.091c.439.634 3.599 2.862 3.599 2.862l-.16 2.888s-2.249-1.836-3.395-3.267C16.976 31.205 5.903 24.3 5.903 24.3l11.16 8.568c.353.18.644.736.868 1.037a61.1 61.1 0 0 1 1.445 2.062l1.372 2.051c.144.22.349.458.448.701.353.855.077 2.303.08 3.224a48.13 48.13 0 0 1-.133 3.742c-.104 1.367.19 2.642.275 4.026.077 1.188-.173 2.601.009 3.864-.466 1.483-.296 3.676-.67 5.005-.348 1.231-.781 2.529-1.694 3.415-.255.243-.545.458-.881.629-.29.148-.6.258-.904.356-.639.206-1.265.649-1.878.933-.432.197-.848.429-1.306.547-.448.11-.963.142-1.361.394-.287.18-.324.434-.474.695s-.376.46-.456.765c-.099.385-.002.536-.303.82-.391.376-.614.901-.867 1.35-.627 1.109-.627 2.259-.823 3.479-.056.362-.21.747-.209 1.112 0 .322.054.617.017.95-.032.301.039.527.026.788.307.043.48.099.624-.142a3.2 3.2 0 0 0 .316-1.026l.271-2.453c.059-.504.155-.991.219-1.503.039-.339.14-.597.269-.901.152-.35.367-.582.576-.904.153-.229.359-.417.506-.646.153-.249.201-.498.365-.736a3.11 3.11 0 0 1 .683-.686c.028-.02.67-.365.664-.226l-.441 6.303c.065-.31.167-.623.206-.767.24-1.014.463-2.048.426-3.088-.026-.828-.054-1.654.255-2.392.381-.912 1.65-.695 2.472-1.049.619-.269.962-.881 1.538-1.179.327-.171.621-.226.934-.437.202-.142 2.555-1.477 2.553-.753 0 .571-.154 1.101-.22 1.66-.077.634-.122 1.269-.171 1.906-.028.406.013.889-.43 1.051-.413.153-.874.006-1.049.516-.043.127-.142 1.382-.15 1.385.263-.049.216-.53.239-.747.037-.31.082-.582.379-.744.218-.122.792-.087.965.113.203.235-.046.73.004 1.011.052.298.188.553.18.857-.013.362-.1.727-.141 1.086-.051.434.031.82.133 1.208.104.365.069.834.025 1.214-.041.362-.1.724-.121 1.086-.009.113-.041.313-.015.426.034.133.169.211.127.377.036-.133.156-.261.19-.423.044-.209.052-.429.061-.646.017-.498.054-.965.14-1.466.213-.09.608-.043.78.119.13.122.082.162.088.33.008.197.045.18.15.33-.059-.382.13-.785-.28-1.028-.147-.087-.483-.104-.571-.249-.068-.104-.002-.429-.005-.562-.043-.901.461-1.639.387-2.543-.039-.463-.205-1.952.482-1.941a2.63 2.63 0 0 1 .678.104c.427.127 1.098.156 1.456.414.485.345.294.71.266 1.216-.011.284.119.388.194.637.062.2-.019.44.026.623.082-.452.138-.715.045-1.173-.078-.388.178-.898.069-1.269-.067-.238-.314-.377-.547-.437l-.799-.212c-.411-.11-.883-.072-1.264-.272-.683-.371-.122-1.46-.004-2.007.209-.95.259-1.932.261-2.905-.005 1.637 4.829-.97 5.365-1.416l1.621.119c-.002.226 1.242.652 1.247.875-.004-.211 1.347.53 1.434.579.687.377.643.655.556 1.428a6.95 6.95 0 0 0-.009 1.387c.07.846-.327 1.68-.243 2.506.101-.933.411-1.651.469-2.613.032-.577-.055-1.182.113-1.744.252-.863.882-.553 1.616-.661.003-.365-.368-.591-.637-.875-.843 0-1.584-.174-2.123-.432.004-.475-.704-.252-.704-.84-.27-.003-1.113-.823-1.379-1.048-.814 0-1.792.417-2.87.414-.268.229-.843.533-1.112.533l-.91.081c-1.076-.2-.502-1.575-.6-1.715-.136-1.211.398-3.215.147-4.533.069-1.248-.282-2.436-.503-3.652-.189-1.066-.033-1.981-.026-3.056.017-1.842.313-3.815.082-5.619-.245-1.894-.083-4.185.372-6.033.356-1.446-.143-3.633 1.488-4.473zM13.726 72.701a.34.34 0 0 1-.074-.148c-.001.032-.007.067-.003.098.029.006.056.026.077.049z"/><path d="M13.652 72.553l.042-.66c-.054.243-.082.493-.042.66z"/></g><g stroke="none"><g fill="#36602e"><path d="M36.834 17.068c.656-.261 1.256-2.016 1.681-2.08.409-.075.518 1.237 1.066 1.092.55-.139.933-1.579 1.564-1.44.632.145 1.026 1.225 1.696 1.092.685-.125 1.605 1.196 1.403 1.57-.204.38-1.302.072-1.269.646.029.582 1.743.362 1.17.626-.588.267.543 2.19-.188 2.06s-.278 1.208-1.245 1.275c-1.005.075-.168-1.877-.663-1.886-.495-.023-.581 1.196-1.363 1.109-.795-.072-.149-1.286-.865-1.411-.711-.116-.846.565-1.57.495-.73-.069-1.049.936-1.694.64-.637-.284-.211-1.918.292-2.059.522-.136-.657-1.483-.016-1.729z" class="B"/><path d="M47.952 22.05c-.371-1.176-.226-2.103-.749-2.21-.537-.101-.689-.408-.963-.304s-.02.965-.623.953c-.617-.003-.055-1.474-.771-1.422-.684.067-1.202-.032-1.781.182-.574.217-.704-.533-1.28-.466-.545.07.078.692-.403.959-.487.261-.791-.035-1.367.168-.585.212.233 2.682-.51 2.859-.734.18.072 1.636.652 1.576.571-.067.411-1.237.933-1.283.518-.035.995.799 1.602 1.26.62.458 1.153-1.214 1.477-.492s.909.429 1.599.938c.678.498 2.552-1.544 2.184-2.717zm-25.07-3.858c.629.834 1.064 2.288.303 2.195-.77-.101.427 1.874-.832 1.364-1.245-.51-2.69 2.106-3.333.872-.636-1.251-1.301 2.039-2.208 1.364-.903-.666-2.004 1.066-2.703 1.072s-.292-1.046-.917-.93-.812 2.407-1.445 1.579-1.379.327-2.234-.602c-.839-.93.029 3.024-.804 2.508-.849-.513-1.753-.4-2.378-.293-.621.116-.422-.516-.289-1.454s-.841-.62-1.405-1.237c-.558-.626.761-.319 1.112-.744.34-.414-1.199-1.442-.789-2.282s1.183-.643 1.736-.223c.566.406.472-2.091.811-1.68.368.414.565-.527 1.263-.116s.662-2.925 1.301-2.207c.63.727 1.804-.017 2.154.602.361.629 1.198.417 1.825 1.135.633.718.819-2.094 1.517-1.474.706.62 2.443.394 2.658 1.121s1.716-2.726 1.999-2.311c.272.417.973.513 1.267 1.237.28.724.752-.322 1.391.504z" class="B"/></g><path d="M.112 22.287c-.15-.767-.277-1.683.503-2.059.791-.38 1.183-2.508 1.672-2.239.495.281 1.794-.414 2.106-.495.329-.075.165-1.515.509-1.422.363.078.238 1.396.657 1.413s.713.067 1.048-.012c.345-.081.232-1.216.306-1.584.088-.374.106-1.422-.644-.941-.732.472-1.385.261-1.799.014-.398-.255-.294-1.338-.225-1.576.088-.243.63.012.626-.333.009-.327-.636-.776-.636-.776s-.166-1.216.094-1.277c.261-.055.542.588.957.475s1.006-.217 1.261-.017c.271.206.112 1.613.34 1.744.237.119.631-.006.631-.006s.359-.568.523-.64c.185-.072.196.382.64.31.452-.087.043-.458.423-.484.369-.014.693.223.944-.009.258-.229-.125-.739.098-1.109.215-.371.947-.009.947-.009s.257.38.534.629.089-.04.529-.003c.452.029-.382-1.854.199-1.9s1.115.579 1.067.933c-.057.371.426.162.724-.003.323-.156-.385-1.657.096-1.746.492-.081 1.433.194 1.39.626-.057.434 1.049.087 1.479.304.419.206.371 1.057.754 1.26.371.203.979-.104 1.265.304.288.4 1.141-.081 1.487.782s-3.073 7.047-3.412 7.314c-.355.258-1.793-.258-2.227-.301-.424-.043-.587-1.758-.861-1.894-.282-.133.517 3.988.04 4.281-.484.287-1.958-.275-2.323.18-.378.449-1.602-.556-1.705-1.092-.094-.542.442-1.164.634-1.112.173.038-.052-.382-.009-.962.03-.562 1.081-.182 1.145-.64.059-.455-1.005-.588-1.271-.455-.269.125-.23-1.092-.54-.953-.3.153-.337.4-.623.643-.285.235-.284-.443-.633-.316-.357.139.007 1.471-.508 1.596-.527.113-.102 2.352-.406 2.847-.309.504-.765.452-1.272.336-.487-.133.075-1.046-.426-1.107-.495-.064-1.135.504-1.471.487-.343-.017-.362.889-.731.961-.374.073-.355-.617-.746-.631-.936.194-.518.162-.518.162s-.519-.553-.861-.466c-.337.096-.215 1.205-.508 1.275s-1.122.458-1.274-.304z" fill="#557f3a" class="B"/><path d="M1.352 23.437c-.501.223-1.109 1.622-.411 2.216.699.611 1.046 2.248 1.5 2.051.471-.206 2.184 1.973 2.66 1.393.461-.579 2.707-1.808 2.821-2.714.114-.912-2.151-1.816-2.547-1.567-.41.266-.601-1.208-.862-1.095-.25.119-.026 1.28-.515 1.434-.477.145-1.285.183-1.58.171s-.582-2.114-1.067-1.889z" class="B C"/><path d="M9.942 30.093c-.311-.351-.439-2.248-.458-2.729-.026-.744.602-.319.949-.484.356-.171-.428-.162-.326-.947.096-.779 1.105-.71 1.475-.643.364.052.416.779.854.779.43-.003-.305-1.718.293-2.062s.967.015 1.481-.012c.509-.032.327-1.257.621-1.109.296.136.147.267.734-.009.601-.284-1.134-1.524-1.594-1.576-.46-.035-.61-1.555-.551-2.054.069-.492.082-.672.525-.64s1.533-.362 1.579-.015c.058.356 1.056 1.547 1.382 1.26.34-.296-.642-1.208-.646-1.576-.004-.382.224-.909.624-.967.417-.049 1.38-.573 1.597-.015.209.576 1.563.808 1.592 1.579.027.762-.093 1.88-.727 1.747-.63-.142-.489 1.538-.93 1.59s-1.187-.145-1.379.015c-.181.145-.424 1.135.013 1.269.443.128 1.474-.889 1.583-.177.117.713.547.652.967.626.405-.029.069-1.474.617-1.434.534.038 1.239 1.24 1.071 1.573-.157.333.189 1.906.021 2.216-.153.313-.843.02-1.164.171-.321.156-.385-.272-.839-.307-.462-.044-.834-.458-1.062.009-.512 1.037-.668 2.587-2.013 1.257-.166-.168-.854-1.657-.532-1.862-.416.264-1.076.058-1.258.33-.181.258.342.576.737.62s-.502 2.419.026 2.532c.536.124-.839-.316-.946.009-.114.339.267 1.266.014 1.434-.252.153-1.253-.463-1.589.015-.219.301-.626-.296-.718-.486.329.66-1.705.454-2.024.075z" fill="#57853c" class="B"/><path d="M3.641 21.898c.249.284 1.009-1.162 1.564-1.292.554-.113-.059-.953.201-1.263.261-.304 1.524.298 1.8.46.285.151 1.077-.6 1.689-.492.606.101 1.739 1.382 1.602 2.039-.13.66-1.769 2.115-2.306 1.923s-.948 2.03-1.455 2.077c-.514.041-.634-.379-.859-.953-.238-.568-1.711-1.086-1.711-1.086s-.918-.012-1.046-.463.261-1.243.519-.95zM9.908 9.907c.222.875 1.218.261 1.581.148.365-.127-.088-1.164.201-1.112.302.052.917-.174 1.164-.012.25.151-.02.716.435 1.257.46.553 2.119-.472 2.436-.02s-.397.405-.62.95c-.238.556-.528 1.486.104 1.747.649.264.513 1.335.865 1.419s1.018.414 1.488-.011c.454-.44-.274-1.694.192-1.59s1.166-.545 1.689-.18c.518.38.605-2.201 1.138-2.219s-.711-3.299-.244-3.331c.472-.023-.223-1.781-.65-1.883-.426-.107-.421.434-.836.634-.429.197-1.515.113-1.705-.298-.172-.423 1.331-.779 1.377-1.755.02-.988-.513-1.764-1.077-1.573-.584.188-.642-1.046-.971-.944-.315.104-.167.458-.517 1.115-.344.663-.576.09-1.049.168s-.02.681-.524 1.112c-.497.437-.92-.417-1.266.009-.34.434-1.492-.408-1.694.017-.176.432-.061.75.341 1.107.393.368 1.301.043 1.679.151.385.093.545.747.232 1.257-.323.513-.616.139-1.163.327-.546.197.778.982.329 1.109s-1.111.09-1.481.171c-.357.072-.307.791-.307.791s-1.372.562-1.147 1.44z" class="B C"/><path d="M18.355 9.826c-.437-.162-1.032-1.315-.326-1.425.705-.104 1.432-.643 1.899-.017.486.623 1.018-1.176 1.574-.646.578.53.432-1.828.943-1.584.521.226 1.109-1.425 1.36-.965.259.455 1.328.362 1.802.452.481.09-.54.458-.197 1.112.343.643.882.941 1.386 1.564.51.626-.778.994-.405 1.912.379.915-1.669-.301-2.219-.611-.552-.322-.515.759-1.154.794-.644.046-.71.295-1.27.327-.556.041-.074 1.051-.718 1.28-.654.226-.359-.44-.96-.301-.605.124-.113-1.002-.439-1.425-.32-.434-.819-.307-1.275-.466z" fill="#36602e" class="B"/><path d="M23.504.36c-.42-.113-1.957-.275-2.544.026-.581.298.325 1.512-.19 1.587-.512.069-1.192.985-1.59.165-.398-.808-1.169.333-1.156.805.012.481.947 1.443 1.293 1.892s-.77.518-.62 1.112c.136.594.575.153.959.779.37.643-.855 1.613-.413 2.062.458.46 1.343.261 1.906-.02.56-.269-.376-2.169.193-2.21.555-.046 1.145.02 1.686-.179.538-.188-.339-1.616.298-1.744.643-.125.776-1.906 1.564-1.755.799.153 1.158-1.263.728-1.752-.437-.49-.984.31-1.471.333-.487.029-.242-.985-.642-1.101z" fill="#4b7b39" class="B"/><path d="M29.125.19c.519-.359.988-.104 1.257-.067.487.067-.488 1.651-.093 1.894s.613.174.965.623c.339.461.588-.371 1.26-.33.687.049-.243 1.141.012 1.425.272.29 2.536.336 3.189.602.642.284.967 1.211.533 1.584-.449.362-1.761-.243-2.32.026-.566.264.072 1.231-.514 1.581-.578.348-.969.29-1.377-.139-.402-.435-.452.133-.831.64-.388.495-.683.026-1.063.006-.369-.02-.472.883-.837 1.121-.358.226-.904.093-1.273-.153-.346-.243-.083-.721-.43-1.263-.349-.53-.602-.933-1.167-.942-.577.003-.419.66-.953.805-.518.142-1.588-1.946-1.062-2.204.518-.261.231-2.3.714-2.224.477.078.649-.527.944-.637.296-.127.221.75.951.62.747-.145-.104-1.694.821-1.749.433-.032.869-.927 1.276-1.219z" fill="#629740" class="B"/><path d="M40.859 9.134c.362.411-.238.768-.73 1.115-.49.353-1.503-.863-1.689-.452-.207.4-.747-.623-1.173-.304-.417.307.09.342-.096.947-.191.603-.605.032-.956.472-.339.458.573 1.275.014 1.752-.544.478-1.141.71-1.783 1.121-.627.417.387 2.451-.392 2.059-.784-.382-1.079 1.164-1.897.657-.83-.501-1.516 1.385-2.311 1.292-.794-.104-1.228-2.54-1.923-2.204-.697.351-.886-1.613-1.912-1.243-1.017.353-.947 1.254-1.365 1.437-.408.186-.955-1.121-1.686-.463-.747.666-.692-.999-1.078-1.883-.394-.886.51-1.156-.13-2.054-.635-.915.285-1.648.824-2.074.551-.423.901 1.173 1.704 1.251.811.078.398-1.579 1.256-1.437s1.488.794 2.119.776.656-.97 1.37-.973c.704-.009.364.765 1.269.947.912.171.857-1.393 1.469-1.605.599-.206 1.004-1.587 1.468-1.118.458.469-.152 1.022.22 1.579.391.562.913.695 1.282.623.369-.067-.451-1.335.088-1.587s.326.458 1.167-.011c.834-.466.274-1.773.823-1.744.547.023.101.936.75 1.098s.779.029 1.275.148c.482.119-.072.851.316 1.257.388.423 1.335.209 1.706.62z" fill="#5a823a" class="B"/><path d="M43.755 13.38c.56.104.659-1.295.391-1.897-.266-.614-1.092-.962-1.474-.629-.383.345-1.104.956-1.693.973-.561.023-.349-.762-.842-.62-.489.127-.211.947-.834 1.425-.629.481-.881.058-1.906.177-1.015.119-.75-1.063-1.369-1.095-.627-.023-.594 1.428-1.684 1.443s-.084 1.836-.29 2.688c-.211.866-.637-.938-1.269-.136-.629.794-1.467-1.44-1.906-.779-.461.663-.889.53-1.051 1.277-.156.75-1.829.878-2.097 1.605-.266.733-1.592-.82-2.319-.142-.741.695-1.366 1.906-1.461 2.552-.085.643.824 1.063.877 2.213.038 1.138 1.845 2.439 2.551 2.193.688-.249-.665-3.264-.026-2.697s1.786-.272 2.324.142c.533.408.594-2.346 1.358-1.602.76.736 2.943.174 3.702.434.753.269.062-2.407.504-2.059.432.345 1.353-.788 1.906-.492.539.298.362-.965.924-1.121.588-.156.371.267.96.307.594.049.169-2.39.943-1.903.759.484 1.941-.84 2.514-.66.594.18.258-.637-.009-1.269-.255-.629-.33.02-.837.009-.521.006-.391-.84.307-.947s1.223.521 1.805.611z" fill="#58853c" class="B"/><path d="M48.741 16.027c.462-.82.12-1.819-.546-1.419-.657.397-.631-2.856-1.384-2.833-.77.02-.669 1.7-1.37 1.752s-.274 1.356-.834 1.584c-.545.24-1.051.805-1.686.185-.639-.634-1.803.562-2.111.017-.307-.553-.994-.38-1.373-.151-.382.238-.585 1.906-.295 1.9.272.006.859 1.069.533 1.422-.313.353-1.529 1.034-1.999.333-.472-.686-.368 1.576-.837 1.442-.455-.136-2.329-.707-2.854-1.248-.54-.53-1.18.779-1.687.814-.515.023-1.072-1.077-1.806-.936s-.737 2.233-1.034 2.867c-.291.62-.966 1.376-1.571.646-.602-.736-.675.336-1.05.643s-.235 2.042.123 2.213c.359.159 2.616-.498 3.146-.339.543.159.09 1.642.89 2.042.784.397 1.624-.203 2.322.449.707.652 1.014-1.862 2.097-1.761s-.404-1.408-.023-2.207c.388-.814.939-1.839 1.579-.976.626.872 1.403 1.973 2.033 2.045.617.055 1.77-1.492 2.411-2.085.621-.585-.604-1.341-.671-2.366-.061-1.028.342-1.622.839-1.277s.876 1.135 1.59 1.251c.727.119.91-2.476 1.667-2.074.788.406 1.884.524 2.543.452.672-.069-.45-1.211.107-1.425.547-.205.783-.136 1.252-.961z" fill="#57853c" class="B"/><path d="M27.442 7.477c.649.472 2.262-1.477 2.729-1.138.485.339.515-2.051 1.043-1.599.54.461 2.248-.901 2.536-.177.294.724.995.119.963.936-.026.823-1.874.484-1.571 1.443s.85.73 1.077 1.416c.219.684-.161 1.44-.839 1.275s-1.516.707-2.12.02c-.582-.684-.608 1.359-1.144 1.28-.542-.084-.243-.463-.539-.941-.278-.489-.999.805-1.686.017-.695-.788-2.432.915-2.64.177-.214-.747.83-1.503.823-2.065-.007-.571-1.345-.385-.743-.938.593-.565 1.462-.185 2.11.295z" fill="#427035" class="B"/><path d="M15.078 19.517c.697-.139.127-1.9.61-1.906s.296.31.844-.009-.145-1.501.309-1.59c.431-.087.476-.02.943-.012.469.023.363-2.048.841-1.744.449.293 1.02-.837 1.263-.012.233.817.653 1.608 1.487 1.57s1.138-1.683 1.788-1.292c.645.406 1.565-.51 2.087.362.515.852 1.178.073 1.517.881.322.791 1.874-.53 2.109-.336.236.174.912 2.804.449 2.998-.466.209-.947.747-1.376.012s-1.506-.629-2.017-1.248-.482 2.042-.929 2.233-.965-.713-1.272-.469c-.306.255 1.451 1.034 1.174 1.573-.269.539-.848 1.576-1.36.959-.505-.611-1.484-.136-2.017-.768s-.126 1.008-.833.962c-.714-.049-1.391 2.395-1.891 1.923-.483-.489-1.912 1.457-2.1.649-.183-.808-1.172-.947-1.175-1.579-.01-.629-1.156-.892-.755-1.254.394-.359-.416-1.773.305-1.903z" fill="#4b7b39" class="B"/><path d="M17.695 18.058c.37.573.778-.582 1.163-.475.384.099.201 1.066.645 1.095.447.043.681-1.216 1.464-1.115.784.095 1.692.846 1.181 1.408-.53.568-.597 2.303-1.149 1.755-.547-.553-.746-.591-1.274-.623-.535-.02-.522 1.413-1.261.965-.73-.452-1.329-.713-1.587-1.095-.266-.388.457-2.474.817-1.915z" class="B C"/></g></symbol></svg>