<svg xmlns="http://www.w3.org/2000/svg" xmlns:xlink="http://www.w3.org/1999/xlink" viewBox="0 0 49 76" fill="#fff" fill-rule="evenodd" stroke="#000" stroke-linecap="round" stroke-linejoin="round"><use xlink:href="#L" x=".5" y=".5"/><defs><linearGradient id="A" x1="-0.00%" y1="50.00%" x2="100.00%" y2="50.00%"><stop offset="0%" stop-color="#98ca3c"/><stop offset="54.6%" stop-color="#8bbd41"/><stop offset="81.2%" stop-color="#a6cc69"/></linearGradient><linearGradient id="B" x1="50.00%" y1="100.00%" x2="50.00%" y2="-0.00%"><stop offset="0%" stop-color="#665145"/><stop offset="100%" stop-color="#7a6659"/></linearGradient><linearGradient id="C" x1="65.90%" y1="76.82%" x2="35.65%" y2="17.02%"><stop offset="0%" stop-color="#665145"/><stop offset="100%" stop-color="#7a6659"/></linearGradient><linearGradient id="D" x1="104.56%" y1="73.23%" x2="-7.71%" y2="21.86%"><stop offset="0%" stop-color="#665145"/><stop offset="100%" stop-color="#7a6659"/></linearGradient><linearGradient id="E" x1="50.00%" y1="100.00%" x2="50.00%" y2="0.00%"><stop offset="0%" stop-color="#665145"/><stop offset="100%" stop-color="#7a6659"/></linearGradient><linearGradient id="F" x1="0.00%" y1="50.00%" x2="100.00%" y2="50.00%"><stop offset="0%" stop-color="#8bbd41"/><stop offset="100%" stop-color="#659b43"/></linearGradient><linearGradient id="G" x1="50.00%" y1="0.00%" x2="50.00%" y2="100.00%"><stop offset="9.1%" stop-color="#98ca3c"/><stop offset="46.7%" stop-color="#88b23f"/><stop offset="90.9%" stop-color="#508b44"/></linearGradient><linearGradient id="H" x1="-0.00%" y1="50.00%" x2="100.00%" y2="50.00%"><stop offset="0%" stop-color="#8bbd41"/><stop offset="100%" stop-color="#669d43"/></linearGradient><linearGradient id="I" x1="-0.00%" y1="50.00%" x2="100.00%" y2="50.00%"><stop offset="0%" stop-color="#8bbd41"/><stop offset="98.8%" stop-color="#508b44"/></linearGradient><linearGradient id="J" x1="100.00%" y1="50.00%" x2="0.00%" y2="50.00%"><stop offset="0%" stop-color="#8bbd41"/><stop offset="98.8%" stop-color="#508b44"/></linearGradient><linearGradient id="K" x1="88.54%" y1="74.75%" x2="13.63%" y2="28.10%"><stop offset="0%" stop-color="#77aa42"/><stop offset="100%" stop-color="#669d43"/></linearGradient></defs><symbol id="L" overflow="visible"><g stroke="none" fill-rule="nonzero"><path d="M21.333 7.387c-.81-.322-2.365-2.36-2.932-3.845-.934-2.449-2.983-.416-4.571-.509-1.146-.068-1.314-.514-2.335.327-.75.618-.908 1.073-2.048.789-1.161-.289-1.334-.633-2.488-.118-1.078.482-1.726.082-2.81.33-.97.222-1.104.966-1.785 1.596-.581.538-1.328.544-1.936 1.216-1.079 1.195.161 3.734.666 5.056.706 1.849 2.372 3.031 4.508 2.662 1-.173 1.946-.808 2.931-1.064.89-.231 1.912-.149 2.877-.149 2.578 0 5.108-.168 7.624-.511 1.203-.164 2.243-.484 2.813-1.64.399-.81.212-1.702.282-2.323s.015-1.496-.795-1.818zm-12.195.515c-.101.173-.457.908-.599.97-.383.168-1.448-.528-1.969-.638-1.32-.278-.982-.687-.088-1.298.808-.553 1.086-.633 2.146-.638l.726.726c.668.31-.021.546-.215.878zm3.94 2.484c-.744.872-1.41-.173-2.024-.49-.533-.276-1.979.003-1.67-.784.215-.549 1.57-.723 2.027-.757l1.089.242c.531.343 1.016 1.275.578 1.789z" fill="url(#A)"/><path d="M33.556 18.399c.611-.772 1.579-1.026 2.45-1.423.902-.411 1.582-1.138 2.481-1.464.464.54-2.445 1.616-1.06 1.72 1.784.134 2.028-1.177 2.888-1.236-.113.886-1.187 1.599-2.085 1.726-.757.107-1.47-.242-2.23.089-.5.218-1.471 1.16-2.05 1.429s-.393-.842-.393-.842z" fill="url(#B)"/><path d="M30.799 12.41c.233-.956 1.007-1.591 1.633-2.315.649-.749.963-1.694 1.645-2.365.646.298-1.548 2.488-.246 2.005 1.677-.623 1.352-1.915 2.109-2.328.267.853-.411 1.949-1.175 2.439-.642.413-1.437.393-1.989 1.011-.364.407-.854 1.668-1.267 2.154s-.708-.601-.708-.601z" fill="url(#C)"/><path d="M22.885 17.757c-.26-1.048.13-1.824.343-2.676.221-.882.04-1.928.329-2.731.734.233-.18 2.849.764 2.166 1.218-.881.285-2.214.77-2.751.663.873.587 2.128.134 2.748-.381.523-1.112.605-1.31 1.335-.131.481.046 1.886-.091 2.457s-.939-.548-.939-.548z" fill="url(#D)"/><path d="M20.244 40.422c-.013-1.25.09-2.668.366-3.748.21-.821.308-1.425.935-2.09.748-.792 1-.802.998-2.027-.002-1.604-.15-3.771 1.211-4.84 1.139-.895 4.434-1.127 4.362-2.178-.033-.479-1.135.184-2.286.569-.914.306-1.891.301-2.178.38.465-.909.761-2.001 1.581-2.738.682-.612 2.221-.775 2.377-1.7l-3.161 1.041c-1.853.455-.583-2.042-2.009-2.012-.129 2.083.645 3.503-.29 5.396-.369.748-.871 1.419-1.065 2.202-.235.95-.122 1.945-.233 2.913-.059.521-.36 2.056-.995 2.273-.886.303-1.257-.993-1.431-1.546-.536-1.69-.473-3.38.4-4.931.388-.689 2.472-3.43 1.993-4.008-1.639.531-2.085 3.077-3.602 3.479-.516-.876.177-2.289-.482-3.085-1.213 2.116.053 7.137-.316 7.375s-1.314-1.332-1.561-1.962c-.646-1.649-.966-3.083-1.204-4.817-.123-.897.062-1.821.446-2.721.278-.652.818-1.431 1.217-2.005.219-.314 1.275-1.962.356-1.948-.415.006-1.09 1.62-1.27 1.881-1.514 2.194-1.998-1.273-2.608-2.247-.906 1.822 1.547 3.249 1.101 4.453-.673 1.819-2.373-2.366-2.211-3.383l-1.089.484.938 2.423c.377.759.987 1.153 1.455 1.839.993 1.455 1.113 4.686 1.843 6.308 1.417 3.148 3.566 4.349 3.989 7.806l.246 3.285c.038.969-.388 22.878-.388 24.297s-.496 3.191-1.276 4.112l-2.127 2.482c-.354.425-1.276.922-.78 1.135s1.56-.071 1.56-.071-1.156 1.11-.638 1.418 1.176-.202 1.914 0 1.56-2.34 1.56-2.34.103 1.851.709 2.623 3.971.706 4.303.558-.427-.96-.427-.96.713.306 1.371.473 3.663-.161 2.694-.851-2.913-1.346-3.9-3.474-2.384-28.272-2.397-29.523z" fill="url(#E)"/><path d="M18.6 50.021c-.032 2.67-.213 13.779-.569 15.66-.264 1.393-.849 2.349-1.629 3.271l-2.127 2.482c-.354.425-1.276.922-.78 1.134s1.56-.071 1.56-.071-1.156 1.11-.638 1.418 1.175-.202 1.914 0 1.56-2.34 1.56-2.34.678-1.217.922-3.616c.258-2.544.012-4.857.071-7.374.099-4.258.344-8.984-.284-10.565z" fill="#5f4b40"/><path d="M21.011 69.709c.189.59.527.86.604 1.034.251.567.148 1.428.294 2.015.169.676.567 1.039.567 1.039a10.93 10.93 0 0 0 1.371.473c.658.167 3.663-.161 2.694-.851s-2.913-1.346-3.9-3.474c-.262-.566-1.193-5.02-1.362-9.179-.405.089.136 3.628.015 5.492l-.284 3.451z" fill="#7a6659"/><path d="M47.47 12.106c.002-1.392-.631-1.021-1.451-1.566-.889-.592-.557-1.407-.334-2.303.291-1.17.391-1.65-.604-2.332-.611-.419-1.248-1.226-1.967-1.428-.44-.124-.989.134-1.424-.022-.481-.172-.65-.579-1.025-.91-1.755-1.551-2.947.567-4.684-.424-1.483-.847-1.861-3.243-3.758-3.116-.924.062-1.807.725-2.144 1.607-.358.937.491 1.929-.302 2.726-.644.647-1.761.537-2.242 1.48-.417.816.125 1.921-.511 2.662-.868 1.011-3.423 1.812-1.61 3.536.279.265.615.374.907.669.243.247.394.614.67.903.627.661 1.593.786 2.329 1.271 1.482.977 1.712 3.35 3.993 2.208 1.272-.637 2.479-3.035 3.993-2.42 0 0 .087.861.481 1.334.688.828 1.125.741 2.188.608 1.295-.161 1.169.024 2.021.87.651.647 1.498.916 2.356.491.556-.276 1.554-1.01 1.939-1.459.698-.815-.047-1.248.36-2.181.338-.775.818-1.285.819-2.205zM36.68 10.512c-.301.594-1.024-.335-1.917-.665-.354-.131-1.373-.034-1.33.438.039.423-.783.134-1.209.127-2.463-.038 1.013-2.535 1.815-1.936 0 0 .627 1.141 1.158.64s1.784.803 1.483 1.396zm.836 2.44c1.46-.604.713.312 1.485.122s.908.166 1.431.263c.47 1.556-4.375.218-2.916-.386zm4.266-1.69c-1.139-.728-.938-1.065-.252-1.031s.965-.411 1.695-.491-.063.71.962.69c.303 1.055-1.809 1.214-2.405.832z" fill="url(#F)"/><path d="M31.737 16.345c-.202-.811.421-1.873.035-2.577-.666-1.219-2.684-.136-2.573-2.145.037-.668.758-1.289.728-1.934-.037-.769-.825-.915-.97-1.576l-.726-.847c-.811-.299-1.504-.781-2.024-1.485-.51-.691-.608-1.56-1.606-1.546-.805.011-1.671.824-2.426 1.062-.902.284-1.877-.142-2.77.155a3.34 3.34 0 0 0-1.731 1.422c-.567.997.006 1.779-.212 2.812-.163.776-.853 1.292-1.089 2.058-.282.917-.065 1.72.364 2.541.943 1.805 1.219 2.817.033 4.599-.968 1.453-2.713 2.431-2.575 4.356.076 1.049.671 1.241 1.482 1.664.981.511 1.451.917 2-.239.353-.745.443-1.781 1.146-2.363 1.327-1.1.915.497 1.181 1.301.253.768 1.239 1.202 2.056.726.611-.356.749-1.298 1.328-1.812.337-.3.566-.36.857-.722.314-.391.189-.69.814-.88.94-.285 1.58.473 2.468.517 1.307.065 3.547-1.466 4.244-2.548.594-.922.208-1.568-.033-2.538zm-6.98 1.215c-.165.14-.667-.368-1.291-.416-.408-.031-.973.407-1.166.407-2.66.004-.822-1.478-.083-1.478.803 0 .831-.397 1.249-.535s.79-.067 1.133-.044c.688.045.532 1.749.157 2.066zm1.08-8.695c-.407.162-.835-.18-1.39-.24s-1.236.162-1.402-.168c-.209-.414.171-.971.693-1.297.309-.193.667-.305.983-.258l.847.121c1.069.019 1.16 1.487.269 1.842z" fill="url(#G)"/><path d="M13.226 11.864c-.909.82-7.175-1.535-10.501 1.237-.256.214-.344.697-.622.966-.363.351-.914.5-1.204.892-.415.561-.676 1.116-.749 1.739-.048.412.125.948.169 1.65.029.471-.138 1.166.046 1.387.808.969 1.493-.478 2.335-.136.617.251.325 1.014.599 1.458.429.694.76.358 1.338.726 1.019.649.946 2.051 1.702 1.426 1.026-.847 1.093-.965 1.313-1.792.213-.8.465-1.485 1.34-1.57.821-.079 1.169.529 1.963-.209.583-.541.524-1.381 1.302-1.724 1.25-.552 2.91 1.155 4.356 1.088 1.47-.068 4.264-.015 3.373-2.275s-.139-3.111-.862-4.105a2.12 2.12 0 0 0-2.03-.883c-.683.082-1.14.598-1.934.124s-1.027-.82-1.936 0z" fill="url(#H)"/><path d="M14.072 22.029c-.617-.351-1.862-.164-2.299.484-.486.721-.229 1.596-.756 2.391-.63.95-.69 1.03-.3 2.054.308.81-.045 1.971.72 2.429.757.453 1.698-.26 2.514-.218.939.048 1.789.546 2.662.72 1.275.254 3.761-.863 3.999-2.407.192-1.244-1.499-1.631-1.851-2.639-.227-.651.315-1.085.153-1.727-.182-.722-.827-.796-1.455-.965l-3.389-.121z" fill="url(#I)"/><path d="M27.262 20.577c-.274.268-.604 3.685.511 5.3.393.57.347 1.6.85 1.599.224-.001 1.104-.106 1.308-.467.254-.451.28-1.028.468-1.495.219-.549.81-.915.467-1.589-.355-.697.374-.935.654-1.402.394-.658.61-.584 1.311-.854.233-.09.756.247 1.025.2.36-.064.492-.501 1.028-.561.841-.094.504-1.537.635-1.781.314-.585.3-1.201-.393-1.736-.284-.22-.73-.089-1-.328-.352-.312-.231-.799-.449-1.125-.535-.798-1.237-.675-1.848-.027-.566.601-.725 1.486-1.422 1.845-.857.441-1.656.49-1.936 1.21s-.937.942-1.21 1.21z" fill="url(#J)"/><path d="M5.933 16.452c-.227.073-1.366 1.882-1.197 3.092.191 1.367 2.068 1.19 2.061-.066-.003-.487-.378-1.148.371-1.334.464-.115 1.094.425 1.56.471.774.076 2.99-.206 2.361-1.517-.097-.202-.382-.254-.465-.462-.108-.272.095-.509.065-.751-.075-.593-.5-.721-1.021-.531-.483.176-.819.625-1.307.629-.6.006-1.059-.19-1.416.133s-.784.263-1.011.335z" fill="url(#K)"/></g></symbol></svg>