<svg xmlns="http://www.w3.org/2000/svg" xmlns:xlink="http://www.w3.org/1999/xlink" viewBox="0 0 76 30" fill="#fff" fill-rule="evenodd" stroke="#000" stroke-linecap="round" stroke-linejoin="round"><use xlink:href="#C" x=".5" y=".5"/><defs><linearGradient id="A" y2="-0.00%" x2="50.01%" y1="100.00%" x1="50.01%"><stop stop-color="#8b8e57" offset="0%"/><stop stop-color="#b7b796" offset="100%"/></linearGradient><linearGradient id="B" y2="0.00%" x2="50.00%" y1="100.00%" x1="50.00%"><stop stop-color="#8b8e57" offset="0%"/><stop stop-color="#90935e" offset="22.7%"/><stop stop-color="#9ea072" offset="56.5%"/><stop stop-color="#b5b593" offset="96.9%"/><stop stop-color="#b7b796" offset="100%"/></linearGradient></defs><symbol id="C" overflow="visible"><g stroke="none" fill-rule="nonzero"><path d="M0 18.862s19.576 2.225 25.024 2.022 27.043-2.426 27.043-2.426S40.765 9.561 39.152 7.54 31.481.868 28.254.059 15.541 8.954 15.541 8.954L.001 18.862z" fill="url(#A)"/><path d="M0 18.862s9.686-6.066 12.31-9.301c3.39-3.919 8.802-7.441 12.208-8.947 1.866-.825 3.346-.58 3.346-.58s-6.069 6.089-9.096 10.134S0 18.862 0 18.862z" fill="#8b8e57"/><path d="M29.159 26.06s16.653 2.534 21.545 1.822 24.147-2.99 24.147-2.99-11.048-7.53-12.7-9.198-7.557-7.698-10.547-8.113-10.602 9.253-10.602 9.253L29.16 26.059z" fill="url(#B)"/><path d="M29.159 26.059s7.854-6.034 9.843-9.036c2.889-4.078 7.341-7.225 10.02-8.611 1.73-.895 2.383-.846 2.383-.846s-4.53 5.707-6.798 9.44-15.448 9.052-15.448 9.052z" fill="#8b8e57"/></g></symbol></svg>