<svg xmlns="http://www.w3.org/2000/svg" xmlns:xlink="http://www.w3.org/1999/xlink" viewBox="0 0 76 63" fill="#fff" fill-rule="evenodd" stroke="#000" stroke-linecap="round" stroke-linejoin="round"><use xlink:href="#M" x=".5" y=".5"/><defs><linearGradient id="A" x1="0.18%" y1="71.32%" x2="98.61%" y2="36.47%"><stop offset="0%" stop-color="#a2c8db"/><stop offset="100%" stop-color="#8dc8e3"/></linearGradient><linearGradient id="B" x1="100.02%" y1="50.03%" x2="-0.12%" y2="50.03%"><stop offset="1.2%" stop-color="#bac7d0"/><stop offset="100%" stop-color="#a0c8dc"/></linearGradient><radialGradient id="C" cx="50%" cy="50%" r="53%" fx="50%" fy="50%"><stop offset="0%" stop-color="#fff"/><stop offset="100%" stop-color="#c4d2d9"/></radialGradient><linearGradient id="D" x1="45.81%" y1="99.46%" x2="53.85%" y2="0.53%"><stop offset="1.2%" stop-color="#fff"/><stop offset="53.9%" stop-color="#cfdddd"/><stop offset="100%" stop-color="#bac7d0"/></linearGradient><linearGradient id="E" x1="75.17%" y1="99.77%" x2="-6.02%" y2="0.41%"><stop offset="1.2%" stop-color="#fff"/><stop offset="24.2%" stop-color="#f0f3f3"/><stop offset="53.9%" stop-color="#cfdddd"/><stop offset="100%" stop-color="#bac7d0"/></linearGradient><linearGradient id="F" x1="63.28%" y1="99.97%" x2="4.50%" y2="-0.10%"><stop offset="1.2%" stop-color="#fff"/><stop offset="24.2%" stop-color="#f0f3f3"/><stop offset="53.9%" stop-color="#cfdddd"/><stop offset="100%" stop-color="#bac7d0"/></linearGradient><linearGradient id="G" x1="3.95%" y1="18.23%" x2="96.63%" y2="88.71%"><stop offset="0%" stop-color="#fff"/><stop offset="100%" stop-color="#bac7d0"/></linearGradient><linearGradient id="H" x1="0.30%" y1="1297.71%" x2="99.33%" y2="-1193.57%"><stop offset="0%" stop-color="#fff"/><stop offset="100%" stop-color="#bac7d0"/></linearGradient><linearGradient id="I" x1="0.35%" y1="891.78%" x2="99.22%" y2="-793.31%"><stop offset="0%" stop-color="#fff"/><stop offset="100%" stop-color="#bac7d0"/></linearGradient><linearGradient id="J" x1="7.56%" y1="167.37%" x2="90.76%" y2="-79.40%"><stop offset="0%" stop-color="#4f332b"/><stop offset="40.5%" stop-color="#543930"/><stop offset="99.7%" stop-color="#60493f"/></linearGradient><linearGradient id="K" x1="-0.17%" y1="50.12%" x2="99.85%" y2="50.12%"><stop offset="0%" stop-color="#4f332b"/><stop offset="40.5%" stop-color="#543930"/><stop offset="99.7%" stop-color="#60493f"/></linearGradient><path id="L" d="M27.247 56.331c.45-.225.81-.585 1.245-.825.555-.315.84-.6.57-1.23-.315-.75-2.115-1.23-2.25-1.26s-.315-.24-.525-.345c-.21-.09-.945-.825-1.83-.42-.465.21-.765.78-1.11 1.11-.375.345-.855.66-.885 1.125-.03.57.57 1.005.495 1.575.78.3 2.34.3 2.745.39s1.545-.12 1.545-.12z"/></defs><symbol id="M" overflow="visible"><g stroke="none" fill-rule="nonzero"><path d="M11.212 41.196c.96.6.78 1.32.99 2.085.18.69.555.69.285 1.32-.21.465-.495.48-.615 1.02-.105.495-.69.285-.915.39-1.05.045-1.56 0-2.88-.72-1.335-.72-2.58-1.365-2.64-2.325-.015-.285.42-.645.51-.975.12-.42.015-.66.105-1.02.12-.435.045-1.41.54-1.365s.945-.465 1.29-.54c.345-.09 1.98.45 2.07.93.09.465 1.26 1.2 1.26 1.2z" fill="#250f1e"/><path d="M70.178 44.796c-.03.375-.225.57-.255 1.005-.03.33.255.81.135 1.08-.39.87-1.785 1.05-3.285 1.26-1.29.18-1.815.105-2.565-.18 0 0-.75-2.925-.36-3.54s.525-1.035 1.395-1.2c0 0 1.335-.285 1.605-.705.255-.42 1.965-.345 2.265-.15.3.21.54.84 1.02.975.51.12.09 1.005.045 1.455zM28.373 2.001c.3-.135.51-.33.795-.48.36-.18.54-.345.33-.645-.255-.36-1.515-.51-1.62-.525-.09 0-.225-.105-.375-.135-.15-.045-.69-.375-1.275-.12-.315.135-.48.435-.69.615-.225.195-.555.375-.54.615 0 .285.015.6.42.765s1.62.03 1.905.06c.27.015 1.05-.15 1.05-.15z" fill="#301f1a"/><path d="M45.742 33.47c2.04-.375 6.435 3.21 8.445 3.855 3.135 1.02 8.025 1.44 8.895 4.365.195.645-.615 1.2-.27 1.98.255.6.96 1.17 1.215 1.785 1.335 3.03-.885 4.215-4.305 5.16-3.24.885-7.005.99-10.38 1.68-3.3.675-7.5.57-10.8-.015-3.135-.555-6.27-1.59-9.495-1.695s-6.075 1.245-9.42.96c-2.355-.21-4.905-.72-7.365-1.005-.045-.195-.09-.375-.15-.555l-.705-.135c-.06-.18-.105-.36-.165-.555-2.49-.585-2.505-1.59-2.505-3.495 0-1.755-.255-3.3.87-4.785 1.83-2.43 4.8-2.55 7.65-4.11 3.24-1.77 6.39-1.38 10.14-1.8 4.59-.51 9.195-1.635 12.315-1.62 1.395.06 3.075.525 6.03-.015z" fill="url(#A)"/><path d="M37.972 34.686c.42.225 1.185.09 1.725.12l2.235.06c1.185.12 2.745.105 3.735.69 1.08.63 2.01 1.065 3.3 1.395.6.165 3.78 1.185 2.685 1.8-.45.255-1.2.105-1.725.345-.615.285-.645.66-.3 1.125.45.6 2.43 1.605.945 2.22-.675.285-1.5.345-2.235.51-.69.165-1.05.39-1.59.735-1.41.9-3.075.03-4.605.525-.885.285-1.515.69-2.49.87-1.125.21-2.295.33-3.45.33-1.89 0-3.915.135-5.775-.105-1.65-.225-3.195-.765-4.875-.93-.9-.09-1.86 0-2.73-.225-.195-.045-.9-.24-.945-.45-.045-.225.3-.3.51-.435.285-.195 1.065-.705.945-1.005-.165-.405-1.245-.45-1.44-.915-.15-.345.405-.99.615-1.305.3-.435.405-.78.615-1.245.705-1.605 3.18-2.265 4.935-2.715l.225-.045s3.03-.915 5.04-1.02l4.65-.33z" fill="url(#B)"/><path d="M30.847 3.681c.36-.045.705-.18 1.065-.24.465-.075.735-.195.795-.645.075-.54-.885-1.245-.975-1.29-.075-.045-.12-.225-.21-.33s-.3-.735-1.005-.675c-.375.03-.75.315-1.095.45s-.765.225-.96.51c-.225.345 0 .75-.255 1.095.39.36 1.365.705 1.59.855.255.15 1.05.27 1.05.27z" fill="#3d1f25"/><path d="M38.437 35.646c1.005-.21 2.73-.24 4.05.45.705.36 1.44.15 2.115.36.57.18 1.14.51 1.68.75.585.255 1.35.36 1.95.6.66.27.87.675.75.975-.06.18-.255.33-.51.39s-.885-.105-1.38-.045c-.87.09-1.785.39-2.745.345-.885-.045-3.945-.18-4.485.345.435.435 1.275.78 1.5.945s-.345.33-.03.525c.495.315 2.085.345 1.365.615-.375.15-.915.42-1.29.78-.645.615-.345.63-1.44.735-.66.06-1.275.3-1.89.375-.825.12-1.515-.15-2.25-.285-.615-.105-1.425.015-2.01-.21-.63-.225-.855-.72-1.53-.93-1.44-.42-3.135.27-4.245-.105-1.125-.375 3-2.055.81-2.055-.645 0-1.32.3-2.01.375-.735.075-1.56.165-2.325.105-.75-.06 1.14-.645.795-.855-.33-.21-.705-.18-1.2-.375s1.005-.555 1.305-.93c.12-.15 0-.45.135-.63.165-.225.435-.3.675-.435.93-.48 1.905-.735 2.955-.885l3.435-.585c1.125-.18 2.355-.645 3.315-.465.99.195 1.5.315 2.505.12z" fill="url(#C)" opacity=".8"/><path d="M35.707 36.771c.6-.045 1.23.825 1.68 1.2.21.18 1.575.54 1.935.885.225.21-.42.42-.525.555-.135.18.195.585.195.78.015.21-.3.21-.465.51-.42.75.12 1.17-1.185 1.32a11.65 11.65 0 0 1-4.59-.495c-.24-.075-.57-.165-.735-.345-.465-.48.165-.39.015-.75-.225-.555-1.005-.495-1.455-.915-.33-.315-.045-.39-.18-.66-.105-.225-.315-.33-.54-.585-.45-.525-.33-.66-.21-1.695s-.99-17.55-.99-21.765-1.26-9.54-2.445-11.04c-.36-.465-.945-.54-1.245-.795-.24-.21-2.73-.435-2.835-.585-.18-.27 2.175-.405 2.43-.435.57-.06 1.23 0 1.89.09.66.105 2.13.345 2.955 1.275.825.945 1.185 2.94 1.65 4.635.48 1.68 3.315 23.085 3.435 24.96s.195 3.225.36 3.465c.195.255.255.435.855.39z" fill="url(#D)"/><path d="M21.442 43.926c.45-.225.81-.585 1.245-.825.555-.315.84-.615.57-1.23-.315-.75-2.115-1.23-2.25-1.26s-.315-.24-.525-.345c-.195-.09-.945-.825-1.83-.42-.465.21-.765.78-1.11 1.11-.375.345-.855.66-.885 1.125-.03.555.57 1.005.495 1.575.78.3 2.34.3 2.745.39s1.545-.12 1.545-.12z" fill="#301f1a"/><path d="M7.192 47.001c.45-.225.81-.585 1.245-.825.555-.315.84-.6.57-1.23-.315-.75-2.115-1.23-2.25-1.26s-.315-.255-.525-.345-.945-.825-1.83-.42c-.465.21-.765.78-1.11 1.11-.375.345-.855.66-.885 1.125-.03.57.57 1.005.495 1.575.78.3 2.34.3 2.745.39s1.545-.12 1.545-.12z" fill="#58334a"/><path d="M34.342 36.066c.24.465.75.27.9.72.15.435.975-.015.945.48-.045.495-1.245.855-2.025.975s-1.86.045-1.95-.39.06-.225.255-.585c.195-.345-.405-.045-.405-.51 0-.165.33-.39.36-.81.03-.435-1.65-17.385-1.65-17.385l-1.545-12.48c-.285-1.605-.75-1.59-.42-1.65s.18-.09.405-.075c.405.03.345.3.555.75s.585 2.655.855 4.425c.285 1.755 1.365 10.875 1.545 12.48.165 1.605 1.53 11.52 1.635 12.3s.075 1.185.195 1.365c.135.165.345.39.345.39z" fill="url(#E)"/><path d="M30.307 38.496c.165.615.27.225.375.81s.045.63 0 1.245c-.045.63-1.275.54-1.875.645-.585.105-2.175.285-2.22-.27s-.435-.585-.285-1.035.585-.39.375-.96c-.135-.36.855-.255.9-.81.03-.555-.75-22.515-.75-22.515l-.48-10.095s-.045-.81-.225-1.47-1.29-1.875-1.11-1.845c.3.06 1.47.69 1.95 2.13.735 2.22.735 13.725.81 15.795.075 2.085.81 14.955.87 15.96s-.015 1.86.075 2.1c.105.27 1.59.315 1.59.315z" fill="url(#F)"/><path d="M26.152 35.181c-.075-.15-.27-.195-.405-.27-.12-.075-.27-.12-.405-.12-.3 0-.33.285-.405.555-.075.255-.285.27-.48.36-.165.09-.39.225-.48.42-.12.225.03.555-.015.81-.06.285-.42.345-.195.795.21.45.375.39.54.6.3.42.3 1.065.465 1.545.045.135.45.39.51.525.12.255-.03.33.12.57.12.21.42.315.66.315.15 0 .285-.105.435-.12.21-.03.42.075.585.195.21.165.315.375.6.33.225-.045.375.09.39-.21 0-.105.24-.39.255-.525a.99.99 0 0 1 .165-.36c.075-.105.165-.15.18-.285.015-.21-.135-.435-.225-.6-.225-.435-.585-.87-.69-1.365-.075-.36-.06-.735-.15-1.08-.09-.315-.21-.585-.42-.84a1.4 1.4 0 0 1-.195-.225l-.255-.45-.585-.57z" fill="url(#G)" opacity=".27"/><path d="M22.432 36.006c-.225-.075-.465-.135-.69-.18-.435-.075-.87.015-1.305 0-.39-.03-.81.33-1.05.69-.165.24-.675-.09-.795.18-.165.345-.63.315-.945.435-.405.15-1.62-.375-1.845.09-.195.39-2.205 1.215-1.845 1.545.135.12.435.435.57.6.12.15-.27.87-.225 1.05.06.225.12.525.285.675.24.255.66.225.975.27.285.03 1.125-.6 2.01-.51.48.06.555.6 1.035.765 1.02.345 2.37.405 2.67.555.51.27.975.66 1.5.87.48.195.945.285 1.455.225.18-.015.315-.075.48-.075l.81.06 1.29-.24c.255.03.51-.225.735-.345.21-.12.42-.285.555-.51.3-.48 0-.81-.255-1.2-.24-.375-.03-.72.045-1.125.06-.36.105-.84-.03-1.185-.165-.435-.525-.78-.78-1.125-.3-.39-.465-.87-.975-.87" fill="url(#H)" opacity=".27"/><path d="M20.587 37.296c-.165-.075-.405.045-.57.06-.165.03-.345.105-.48.225-.3.255-.135.555-.03.87.09.315-.105.495-.225.75-.105.225-.225.54-.195.81.03.33.405.51.525.81.135.33-.18.69.33.945.51.27.63.06.93.15.57.165 1.005.795 1.5 1.125.15.105.705.03.855.105.285.15.195.345.495.465.27.105.63-.03.855-.225.15-.12.21-.345.345-.48.18-.21.45-.27.705-.285.315-.015.555.105.81-.165.195-.225.435-.21.24-.51-.075-.12-.03-.585-.09-.72a1.11 1.11 0 0 1-.075-.495c0-.165.06-.27-.015-.42-.12-.225-.42-.315-.63-.405-.51-.24-1.155-.375-1.575-.78-.315-.3-.555-.66-.885-.93-.3-.24-.6-.405-.975-.48-.12-.03-.225-.015-.345-.06l-.555-.225-.945-.135z" fill="url(#I)" opacity=".27"/><path d="M30.127 4.086c0-.27.09-.525.105-.795.015-.345.105-.54.54-.555.525-.015 1.335.78 1.395.84s.24.105.345.18c.12.075.75.285.78.81.015.285-.225.54-.3.78-.09.255-.12.57-.39.675-.315.135-.66.3-1.05.105s-.87-1.08-1.05-1.26c-.15-.165-.375-.78-.375-.78zm-4.485 9c-.255.24-.6.42-.855.645-.345.3-.63.435-1.14.27-.615-.195-.825-1.2-.84-1.26-.015-.075-.18-.18-.24-.3s-.615-.54-.165-1.02c.24-.24.765-.39 1.095-.57.345-.195.675-.45 1.08-.45.495 0 1.05 0 1.305.315.27.315 0 1.29.03 1.515.045.24-.27.855-.27.855zm14.325 9.975c.435.195.975.27 1.425.435.57.21 1.005.27 1.605-.18.705-.54.51-1.935.48-2.025-.015-.105.15-.33.165-.495.015-.18.54-.99-.27-1.395-.42-.21-1.17-.15-1.68-.225-.525-.09-1.08-.27-1.605-.06-.645.225-1.35.48-1.545 1.02-.21.54.615 1.665.675 1.98.06.3.75.945.75.945zm-37.2 26.355c-.495.015-.975-.075-1.455-.075-.615 0-1.02-.09-1.26-.6-.285-.615.69-1.59.765-1.665s.06-.285.15-.42.12-.885 1.035-.96c.48-.03 1.095.225 1.56.315.495.09 1.08.105 1.41.405.405.36.87.75.72 1.215s-1.485 1.065-1.725 1.275c-.225.225-1.2.51-1.2.51z" fill="#301f1a"/><path d="M73.072 56.121c.45-.225.81-.585 1.245-.825.555-.315.84-.615.57-1.23-.315-.75-2.115-1.23-2.25-1.26s-.315-.24-.525-.345c-.21-.09-.945-.825-1.83-.42-.465.225-.765.78-1.11 1.11-.375.345-.855.66-.885 1.125-.03.57.57 1.005.495 1.575.78.3 2.34.3 2.745.39s1.545-.12 1.545-.12z" fill="#58334a"/><path d="M68.647 58.535c-.48.015-.975-.075-1.455-.075-.615 0-1.02-.09-1.26-.6-.3-.615.69-1.59.765-1.65.075-.075.06-.285.15-.42s.12-.885 1.035-.96c.48-.03 1.095.225 1.56.315.495.09 1.08.105 1.41.405.405.36.87.75.72 1.215s-1.485 1.065-1.725 1.275c-.225.21-1.2.495-1.2.495z" fill="#301f1a"/><use xlink:href="#L" fill="#58334a"/><path d="M22.822 58.745c-.495.015-.975-.075-1.455-.075-.615 0-1.02-.09-1.26-.6-.285-.615.69-1.59.765-1.65.075-.075.06-.285.15-.42s.12-.885 1.035-.96c.48-.03 1.095.225 1.56.315.495.09 1.08.105 1.41.405.405.36.87.75.72 1.215s-1.485 1.065-1.725 1.275-1.2.495-1.2.495z" fill="#301f1a"/><path d="M16.057 52.461c-.525.045-.045-1.185.66-1.605.69-.42 1.92-.615 2.655-.525s1.815.12 1.89.885c.06.78-1.785 1.755-2.535 2.07-.765.33-2.16-.87-2.67-.825z" fill="url(#J)"/><path d="M27.307 6.216s.15-.33.405-.165.465.57.57.735-.105.525-.36.735l-.465.375-.15-1.68zm28.26 43.245c.945-.645 1.53-.18 2.31-.06.705.105.855-.24 1.32.27.33.375.24.645.69.975.39.3-.03.75-.015.99-.39.99-.63 1.425-1.815 2.355s-2.28 1.8-3.18 1.47c-.27-.105-.42-.63-.69-.855-.33-.27-.6-.285-.885-.51-.36-.285-1.275-.6-1.035-1.035s-.045-1.05.015-1.41 1.2-1.635 1.695-1.53c.45.12 1.59-.66 1.59-.66z" fill="#301f1a"/><path d="M63.893 51.081c1.05.435.975 1.185 1.305 1.905.285.66.66.585.48 1.26-.135.495-.42.555-.45 1.11-.03.495-.645.39-.84.525-1.035.21-1.545.24-2.955-.255-1.425-.51-2.76-.96-2.97-1.89-.06-.285.315-.69.36-1.035.045-.435-.09-.66-.045-1.035.045-.45-.18-1.395.315-1.44.51-.03.855-.6 1.2-.735.33-.15 2.025.135 2.19.6.15.45 1.41.99 1.41.99zm-33.915 5.16c1.05.45.975 1.185 1.29 1.905.285.66.66.585.48 1.26-.135.495-.42.555-.45 1.11-.03.495-.645.39-.84.525-1.035.21-1.545.24-2.955-.27-1.425-.51-2.76-.96-2.97-1.89-.06-.285.315-.69.36-1.035.045-.42-.09-.645-.045-1.02.045-.45-.18-1.395.315-1.44.51-.03.855-.6 1.2-.735.33-.15 2.025.135 2.19.6.18.45 1.425.99 1.425.99zm-14.79-6.915c1.05.435.975 1.185 1.29 1.905.285.66.66.585.48 1.26-.135.495-.42.555-.45 1.11-.03.495-.645.39-.84.525-1.035.21-1.545.24-2.955-.255-1.425-.51-2.76-.96-2.97-1.89-.06-.285.315-.69.36-1.035.045-.42-.09-.645-.045-1.02.045-.45-.18-1.395.315-1.44.51-.03.855-.6 1.185-.735.33-.15 2.025.135 2.19.6.18.435 1.44.975 1.44.975z" fill="#250f1e"/><use xlink:href="#L" x="-7.575" y="-51.54" fill="url(#K)"/><path d="M22.897 5.795c-.48.015-.975-.075-1.455-.075-.615 0-1.02-.09-1.26-.6-.285-.615.69-1.59.765-1.665s.06-.285.15-.42.12-.9 1.035-.96c.48-.03 1.095.225 1.56.315.495.09 1.08.105 1.41.405.405.36.87.75.72 1.215s-1.485 1.065-1.725 1.275c-.24.225-1.2.51-1.2.51z" fill="#301f1a"/></g></symbol></svg>