<svg xmlns="http://www.w3.org/2000/svg" xmlns:xlink="http://www.w3.org/1999/xlink" viewBox="0 0 76 65" fill="#fff" fill-rule="evenodd" stroke="#000" stroke-linecap="round" stroke-linejoin="round"><style><![CDATA[.B{fill-rule:nonzero}.C{fill:url(#L)}.D{fill:url(#J)}.E{fill:#69746c}.F{fill:#668929}.G{fill:url(#K)}.H{fill:#231f20}.I{fill:#c6a571}.J{fill:url(#M)}.K{stroke-linejoin:miter}.L{stroke-width:.208}]]></style><use xlink:href="#a" x=".5" y=".5"/><defs><linearGradient id="A" y2="-0.87%" x2="18.61%" y1="111.10%" x1="84.66%"><stop stop-color="#007db0" offset="0%"/><stop stop-color="#4e898d" offset="38.9%"/><stop stop-color="#9d956a" offset="80.7%"/><stop stop-color="#bc9a5c" offset="100%"/></linearGradient><linearGradient id="B" y2="50.00%" x2="1.65%" y1="50.00%" x1="114.99%"><stop stop-color="#7b766a" offset="0%"/><stop stop-color="#aaa576" offset="100%"/></linearGradient><linearGradient id="C" y2="50.00%" x2="-0.46%" y1="50.00%" x1="99.54%"><stop stop-color="#7b766a" offset="0%"/><stop stop-color="#aaa576" offset="100%"/></linearGradient><linearGradient id="D" y2="50.04%" x2="-18.69%" y1="50.04%" x1="103.07%"><stop stop-color="#7b766a" offset="0%"/><stop stop-color="#aaa576" offset="100%"/></linearGradient><linearGradient id="E" y2="49.99%" x2="-13.45%" y1="49.99%" x1="108.31%"><stop stop-color="#7b766a" offset="0%"/><stop stop-color="#aaa576" offset="100%"/></linearGradient><radialGradient id="F" cy="52%" cx="51%" r="75%" fx="51%" fy="52%"><stop stop-color="#7dbb45" offset="0%"/><stop stop-color="#496e6e" offset="100%"/></radialGradient><linearGradient id="G" y2="50.00%" x2="-1.05%" y1="50.00%" x1="104.09%"><stop stop-color="#7b766a" offset="0%"/><stop stop-color="#aaa576" offset="100%"/></linearGradient><linearGradient id="H" y2="60.64%" x2="122.64%" y1="38.75%" x1="-21.35%"><stop stop-color="#7b766a" offset="0%"/><stop stop-color="#aaa576" offset="100%"/></linearGradient><linearGradient id="I" y2="49.99%" x2="-2.28%" y1="49.99%" x1="100.29%"><stop stop-color="#7b766a" offset="0%"/><stop stop-color="#aaa576" offset="100%"/></linearGradient><linearGradient id="J" y2="50.00%" x2="100.00%" y1="50.00%" x1="-0.00%"><stop stop-color="#9d8b54" offset="0%"/><stop stop-color="#5d954a" offset="100%"/></linearGradient><linearGradient id="K" y2="50.02%" x2="99.90%" y1="50.02%" x1="0.03%"><stop stop-color="#9d8b54" offset="0%"/><stop stop-color="#5d954a" offset="100%"/></linearGradient><linearGradient id="L" y2="50.02%" x2="100.02%" y1="50.02%" x1="0.02%"><stop stop-color="#9d8b54" offset="0%"/><stop stop-color="#5d954a" offset="100%"/></linearGradient><linearGradient id="M" y2="50.00%" x2="99.99%" y1="50.00%" x1="-0.01%"><stop stop-color="#9d8b54" offset="0%"/><stop stop-color="#5d954a" offset="100%"/></linearGradient><linearGradient id="N" y2="49.99%" x2="100.01%" y1="49.99%" x1="-0.04%"><stop stop-color="#9d8b54" offset="0%"/><stop stop-color="#5d954a" offset="100%"/></linearGradient><linearGradient id="O" y2="49.99%" x2="100.02%" y1="49.99%" x1="0.02%"><stop stop-color="#9d8b54" offset="0%"/><stop stop-color="#5d954a" offset="100%"/></linearGradient><linearGradient id="P" y2="50.00%" x2="-3.66%" y1="50.00%" x1="96.34%"><stop stop-color="#7b766a" offset="0%"/><stop stop-color="#aaa576" offset="100%"/></linearGradient><linearGradient id="Q" y2="50.00%" x2="-4.24%" y1="50.00%" x1="95.75%"><stop stop-color="#7b766a" offset="0%"/><stop stop-color="#aaa576" offset="100%"/></linearGradient><radialGradient id="R" cy="50%" cx="47%" r="74%" fx="47%" fy="50%"><stop stop-color="#7dbb45" offset="0%"/><stop stop-color="#496e6e" offset="100%"/></radialGradient><linearGradient id="S" y2="49.99%" x2="101.26%" y1="49.99%" x1="-11.92%"><stop stop-color="#7b766a" offset="0%"/><stop stop-color="#aaa576" offset="100%"/></linearGradient><linearGradient id="T" y2="50.00%" x2="101.47%" y1="50.00%" x1="1.48%"><stop stop-color="#7b766a" offset="0%"/><stop stop-color="#aaa576" offset="100%"/></linearGradient><linearGradient id="U" y2="49.95%" x2="141.50%" y1="49.95%" x1="19.49%"><stop stop-color="#7b766a" offset="0%"/><stop stop-color="#aaa576" offset="100%"/></linearGradient><linearGradient id="V" y2="49.94%" x2="136.66%" y1="49.94%" x1="14.56%"><stop stop-color="#7b766a" offset="0%"/><stop stop-color="#aaa576" offset="100%"/></linearGradient><radialGradient id="W" cy="51%" cx="49%" r="75%" fx="49%" fy="51%"><stop stop-color="#7dbb45" offset="0%"/><stop stop-color="#496e6e" offset="100%"/></radialGradient><linearGradient id="X" y2="50.01%" x2="103.45%" y1="50.01%" x1="-1.67%"><stop stop-color="#7b766a" offset="0%"/><stop stop-color="#aaa576" offset="100%"/></linearGradient><linearGradient id="Y" y2="225.17%" x2="-18.73%" y1="-127.01%" x1="125.37%"><stop stop-color="#7b766a" offset="0%"/><stop stop-color="#aaa576" offset="100%"/></linearGradient><linearGradient id="Z" y2="50.00%" x2="103.82%" y1="50.00%" x1="1.23%"><stop stop-color="#7b766a" offset="0%"/><stop stop-color="#aaa576" offset="100%"/></linearGradient></defs><symbol id="a" overflow="visible"><g stroke="#231f20" class="B K L"><path d="M15.432 3.443c-.101 4.352-31.175 20.739-.397 24.91 5.594 3.012-2.144 5.106-7.345 9.962-3.121 2.914-2.666 5.77.139 7.287 3.02 2.786 11.121-.855 18.397 1.518 3.344 1.089 6.439 5.555 8.918 8.75 4.371 5.383 16.262 2.832 16.907.03 1.051-7.106-12.097-8.784-9.737-15.964 3.095-6.564 15.737-2.084 13.289-11.119-3.517-9.631-15.121-5.272-24.482-9.73-4.596-2.192-5.477-8.179-3.146-15.754" stroke-linecap="butt" fill="url(#A)"/><path d="M12.956 22.484c-.191 0-.117 3.492-.077 3.835.038.378.947.262.989.037.035-.191.111-3.909.111-3.909l-1.023.036z" class="E"/><path d="M13.974 22.304l-1.085.04-.057.053c-.248.279-.099 3.903-.096 3.938.024.221.23.362.552.372.256.009.675-.074.718-.327.038-.189.103-3.306.115-3.931l.003-.151-.15.009zm-.141.29l-.107 3.734c-.04.051-.348.135-.574.074-.083-.023-.128-.054-.133-.099-.023-.202-.046-1.118-.046-1.993l.073-1.686.787-.031z" class="H"/><g class="E"><path d="M13.106 19.485c0-.113.418-3.303 1.176-6.567.987-3.948 2.579-8.009 3.111-8.162.343-.116-.606 1.707-.758 2.277l-1.822 6.416-1.251 7.44-.456-1.404z"/><path d="M13.563 19.901s1.707-5.197 2.58-6.225c.874-1.023 3-1.519 3.491-1.519.533 0-.341.154-1.174.761-.798.607-1.216.114-1.899 1.594-.456 1.137-2.393 5.505-2.621 7.934-.073.607-.378-.608-.378-.608V19.9z"/><path d="M12.955 22.671l-1.102-7.779c-.533-3.266-1.367-6.491-1.519-7.1-.227-.949 1.519 3.491 2.202 6.605l.419 2.354c.455 1.935 1.063 5.352 1.063 5.961s-.986.606-1.063-.041z"/></g><path d="M10.363 21.312c.051.191.071.87.071 1.598l-.045 1.852c-.003.028-.033.051-.09.068-.202.064-.506-.013-.55-.068-.016-.121-.067-2.079-.097-3.449h.712z" class="H"/><g class="E"><path d="M10.302 18.36c0-.111-.38-3.111-1.101-6.148-.911-3.685-2.43-7.481-2.885-7.633-.343-.112.532 1.634.682 2.128l1.71 5.994 1.177 6.987.417-1.329z"/><path d="M9.884 18.776s-1.557-4.707-2.391-5.692c-.837-.95-3.608-4.215-4.099-4.215-.457 0 .111.532.872 1.102.72.57 2.164 2.352 2.77 3.758.457 1.062 2.277 5.163 2.47 7.403.075.568.379-.571.379-.571v-1.784z"/><path d="M10.454 21.359l1.025-7.289 1.442-6.605c.227-.874-1.442 3.267-2.088 6.15l-.379 2.24c-.418 1.784-.989 5.011-.989 5.581 0 .532.912.532.989-.076zm-6.408-1.172c-.163 0-.098 3.01-.066 3.306.033.326.821.229.853.032l.098-3.374-.884.034zm.13-2.59c0-.098.327-2.88 1.017-5.698.817-3.404 2.226-6.876 2.654-7.04.326-.099-.493 1.506-.624 1.964l-1.571 5.536c-.59 2.553-1.08 6.418-1.08 6.418l-.395-1.18z"/><path d="M4.571 17.956s1.439-4.485 2.228-5.368c.751-.884 5.63-3.34 6.056-3.34.459 0-.295.131-1.015.654-.687.525-4.095 2.127-4.683 3.404-.425.982-2.095 4.751-2.29 6.845-.034.493-.295-.524-.295-.524v-1.671z"/><path d="M4.046 20.347l-.949-6.712-1.31-6.123c-.231-.819 1.31 3.012 1.9 5.696l.359 2.033c.394 1.668.884 4.616.884 5.142 0 .521-.819.521-.884-.036zm39.849 11.076c-.181 0-.109 3.063-.073 3.387s.82.212.859.035.105-3.422.105-3.422h-.891zm.145-2.638c0-.107.352-2.922 1.029-5.772.856-3.456 2.283-7.02 2.709-7.164.321-.104-.498 1.533-.642 1.997l-1.602 5.63-1.107 6.554-.389-1.244z"/><path d="M44.427 29.176s1.462-4.417 2.247-5.344c.783-.891 3.383-3.955 3.848-3.955.427 0-.109.499-.82 1.033-.678.535-2.033 2.21-2.601 3.527-.427.999-2.138 4.848-2.316 6.949-.07.532-.358-.535-.358-.535v-1.675z"/></g><path d="M50.469 20.052c-.081.105-.283.319-.852.745-.059.046-.148.145-.217.21.483-.506.888-.883 1.069-.955z" class="H"/><path d="M43.894 31.603l-.961-6.843-1.355-6.201c-.216-.82 1.355 3.066 1.961 5.774l.355 2.101c.391 1.677.926 4.704.926 5.239 0 .495-.856.495-.927-.07zm8.844-1.536c.155 0 .092 2.829.061 3.105-.03.308-.767.216-.799.03l-.09-3.166.828.031z" class="E"/><path d="M51.769 30.04l.089 3.162c.04.248.396.318.612.313.277-.01.451-.132.47-.326.004-.026.134-2.967-.085-3.208l-.038-.046-.074-.009-.98-.038.005.153zm.364 3.093l-.075-2.949.584.023c.04.175.054.722.054 1.314l-.038 1.635c-.002.028-.039.045-.069.054-.167.055-.419-.011-.457-.054.002 0 .002-.009.002-.023z" class="H"/><g class="E"><path d="M52.617 27.639c0-.09-.309-2.704-.954-5.348-.768-3.197-2.093-6.455-2.492-6.608-.307-.094.46 1.412.584 1.843l1.479 5.195c.55 2.399 1.012 6.027 1.012 6.027l.37-1.109z"/><path d="M52.247 27.977s-1.352-4.21-2.089-5.041c-.707-.829-5.287-3.134-5.685-3.134-.434 0 .273.121.948.616.645.489 3.843 1.996 4.399 3.194.396.922 1.965 4.459 2.152 6.424.028.462.275-.491.275-.491v-1.569z"/><path d="M52.738 30.219l.892-6.301 1.23-5.747c.218-.769-1.23 2.829-1.783 5.351l-.339 1.905c-.368 1.566-.827 4.334-.827 4.825s.767.491.828-.033z"/></g><path d="M56.282 51.996c-.018.176-.296.079.089.271 0 0-3.987.148-4.091-.042-.086-.176.756-1.176.896-2.019.103-.861.384-1.441.296-1.793-.033-.051.124-4.896-.122-6.32l-.141-8.075s.652-1.247 2.424-.616c1.105.388.316 7.478.367 8.658-.332 4.513-.052 9.163.281 9.937z" fill="url(#B)"/><path d="M60.273 54.096l-2.44-.611-.024-3.246c.192-2.671.122-7.868-.298-8.64-.897-1.597-4.707-4.123-5.583-6.514.245-.598.824-.649 1.157-.419.879.631 5.074 5.371 6.234 5.264.299-.189.388-1.087 1.299-2.438 1.354-1.529 2.843-3.53 3.739-1.738-2.668 2.615-4.02 6.162-3.811 6.444l-.274 11.897z" fill="url(#C)"/><path d="M61.285 52.805s.107-1.054.072-1.877c-.02-.827-.51-.194-.493-.055s-.123 1.405-.052 1.615c.087.192.473.316.473.316z" fill="url(#D)"/><path d="M62.468 53.121s.106-1.052.069-1.879c-.016-.823-.51-.192-.492-.052s-.122 1.406-.053 1.615c.087.193.474.316.474.316z" fill="url(#E)"/><path d="M58.477 41.339l.631-.897c.404-.594 1.618.458 1.369-1.489-.28-.878.125-.351.897-.087.174 0 1.338.227 1.404-.283.036-.298.192-1.068-.336-1.3-.894-.823-1.297.107-1.948-.386-.069-.633 2.02-2.228.388-1.843-1.246.141-.95-1.053.017-1.404.649-.388 1.178-.209 1.37.034h.035c.227.334.842 1.036.333 1.072-1.071.07-.631 1.545-.123 1.562l.667-.437c.192-.282 1.089-.317 1.016.58-.507.896-1.121 1.581-.155 2.176.228 0 .756-.245 1.036-.033.368.244.192 1.087.42 1.562.563 1.141 3.022.753 1.897-2.388-.016-.069.068-.42.298-.351.878.262.231 1.687 1.108 1.441.156-.054.156-.405.35-.74.455-.929.685.51.561.79-.123.3.106.948.739.668.366-.158.404-1.14.966-.877.541.298-.336 1.194.579 1.79.895.599 1.3-1.052.806-1.385-.491-.371-.332-.794.633-.563.93.208.631-1.652.072-1.475-.601.173-1.566.209-1.301-.651.122-.386 1.121.106 1.301-.016.858-.615-.934-2.144-.934-2.144s-.085-.315.017-.491c.107-.157.159-.246.335-.405.191-.209.965.195 1.229.073.931 0 .263-1.019.122-1.899s-1.177-1.913-2.211-1.596-1.986.718-2.129-.388c-.156-1.107-1.085-2.053-3.368-2.141-2.265-.089-2.124 1.191-3.443 1.352-1.332.158-.895-1.352-2.228-1.738s-3.158.403-3.741 1.034c-.596.633-.839.596-2.247-.35-1.178-.791-2.211-.316-3.669.088-1.091.296-1.282 1.298-1.352 1.387-.141.228-.264.44-.243.686.191 1.666-.407 1.843-.846 1.474-.121-.106-.141-.298-.491-.528 0 0-.457-.245-.808.073-.246.209-.212.808-.212.808 0 .298.738 1.333-.176 1.333v.017c-.965 0-.594-.087-1.404-.21-.669 0-.894.387-.876 1 .036.245.208.633.491.633l.299.016c2.017-.472 2.791.899 1.087 1.46-1.107.176-2.457-1.266-2.688.683.142.721.282.703 1.391 1.159.209.318.051.423-.232.525-.264 0-.683.161-.683.369-.143.266-.159.669.37 1.058 1.158.333 1.068-.547 1.841-1.127.93-.351.51.949 0 1.44-.139.718.458.718.983.353.107-.229.774-.615.774-.615.3-.071.773.015.773.421.019.684-.122 1.018-.738 1.159-.246.051-1.825.387-1.825 1.054-.07.772.455 1.827 1.475 1.476.176.155.983-1.233 1.405-1.652.123-.125.474-.052.474-.052.264 0 .564.683.983 1.036.369.315.809.384 1.072-.263.245-1.548-.388-.846.265-1.634.313-.244.735.159.735.299.315.21 1.001 2.052 2.299.226 1.286-1.825 1.832.034 3.097-.526z" fill="url(#F)"/><path d="M53.438 46.448c-1.107.404-3.214 1.913-4.724 4.67-.085.158.123.088.405.088 0 0 .877-1.528 2.457-3.055.912-.879 1.811-1.159 1.931-1.159.509-.124.425-.72-.069-.545z" fill="url(#G)"/><path d="M56.089 50.1c.948.703 2.529 2.758 3.196 5.83.051.176-.16.036-.421-.035 0 0-.404-1.72-1.474-3.617-.634-1.121-1.406-1.63-1.512-1.684-.455-.244-.21-.791.211-.493z" fill="url(#H)"/><path d="M53.595 44.85c-2.213 1.071-4.372 2.285-7.741 5.073-.178.141.646.265.646.108 0 0 .563-.721 2.53-1.95.123-.072 1.156 1.035 2.32 3.706.085.191.313.209.385.156.017 0-.107-.368-.142-.474-.491-1.701-1.984-3.704-1.895-3.775 2.124-1.79 3.951-2.108 4.09-2.124.036-.558-.138-.751-.192-.719z" fill="url(#I)"/></g><g stroke="none"><path d="M30.112 5.816c.741 2.531 1.488 5.507.424 10.011-.039.16.195.571.195.571 1.261-4.867.198-8.505-.577-11.162l-.419-1.517.377 2.097z" class="B D"/><path d="M25.752 7.942c.411.716.951 1.216 1.523 1.745 1.313 1.214 2.668 2.467 2.764 6.609l.328-.007c-.099-4.281-1.571-5.642-2.869-6.843-.554-.511-1.075-.994-1.462-1.667l-.283.164z" class="B F"/><path d="M30.177 8.831c.976 1.498 1.983 3.047 1.058 7.086l.319.073c.956-4.174-.136-5.855-1.101-7.338-.41-.631-.798-1.229-1.008-1.975 0 0 .308 1.501.732 2.153z" class="B G"/><g class="F"><path d="M27.587 15.517l.317.083c1.204-4.649-.091-9.148-1.038-12.01l-.597-1.384c0-.001 2.834 7.604 1.319 13.311zm-2.521-5.853c1.108.897 1.85 1.433 2.013 4.906l.395.94c-.099-4.401-1.027-5.152-2.203-6.102-.445-.361-.906-.734-1.374-1.36.002-.001.729 1.257 1.171 1.615z" class="B"/><path d="M30.408 14.754c0 .002.111 1.838.111 1.838.007.216.012.333.167.339s.172-.128.19-.282c.583-7.802 7.595-13.586 7.595-13.586-5.355 4.033-7.121 9.19-7.704 12.179l-.032-.519c-.647-6.472-8.566-12.904-8.646-12.968 0 0 7.684 6.666 8.319 12.998z" class="B"/></g><path d="M29.477 12.107a18.35 18.35 0 0 0 .112 2.008c-2.51-5.603-7.759-7.659-7.814-7.68 0 0 5.432 2.469 7.767 8.381l.281.777c.156.747.32 1.213.383 1.274l.209.022c.033-.021.068-.044.068-.146 0-.151-.08-.491-.349-1.256a17.51 17.51 0 0 1-.305-3.32c-.197-4.762 2.231-9.246 2.231-9.246-2.034 3.234-2.584 6.582-2.584 9.187z" class="B I"/><path d="M32.134 14.053c-.13.681-.178 1.255-.178 1.673 0 .399.041.661.082.748.066.13.17.153.247.132.175-.048.263-.436.263-1.155l-.062-1.287-.016-.092c.625-4.936 6.299-9.756 6.299-9.756-4.102 3.087-5.79 6.471-6.442 8.892-1.197-5.907-7.557-9.369-7.623-9.404.002 0 6.711 4.024 7.43 10.25z" class="B C"/><path d="M31.459 5.528c.871 2.513 1.868 5.74.705 10.227l.317.082c1.186-4.582-.023-8.079-.908-10.63-.256-.746-.48-1.389-.62-1.98 0 .001.256 1.579.506 2.301z" class="B J"/><path d="M31.186 14.356l.07.786-.084 1.032c0 .353.035.585.085.667l.21.082c.052-.019.173-.059.173-.788 0-.239-.02-.59-.055-1.003-.03-4.121 4.717-9.355 4.717-9.355-3.045 2.901-4.338 6.047-4.84 8.252-.94-6.269-5.699-9.671-5.749-9.705 0 0 4.66 3.726 5.473 10.032z" class="B D"/><path d="M27.559 13.816c-.13.679-.179 1.254-.179 1.672 0 .401.04.66.084.749.064.13.169.152.244.131.174-.048.263-.435.263-1.154l-.063-1.289c-.003-.031-.011-.059-.015-.09.486-4.891 6.3-9.758 6.3-9.758-4.101 3.088-5.79 6.474-6.442 8.892-1.196-5.907-7.556-9.369-7.623-9.405.002 0 6.714 4.024 7.433 10.252z" class="B C"/><path d="M27 10.564c0 1.274.102 2.617.273 4.003l-.248-.67c-2.392-6.052-8.018-8.24-8.074-8.262 0 0 5.432 2.469 7.767 8.38-.001-.002.282.761.282.761.422 1.134.422 1.134.595 1.089.166-.041.156-.107.067-.752C26.117 5.815 29.716 0 29.716 0c-1.81 2.876-2.719 6.415-2.719 10.563z" class="B D"/><path d="M29.296 14.64l-.061 1.173c0 .553.046.908.094 1.004l.216.107c.078-.022.186-.052.186-.766 0-.306-.019-.738-.07-1.35-.005-.048-.021-.096-.026-.144.19-6.49 6.68-12.256 6.68-12.256-4.745 3.574-6.38 8.162-6.88 11.196-1.642-6.09-10.607-12.059-11.012-12.325.002 0 10.052 7.092 10.876 13.362z" class="B C"/><path d="M29.338 16.399l.318.082c1.249-4.819.401-8.237-.282-10.522l-.418-.907s1.879 6.008.382 11.347z" class="B G"/><path d="M28.36 14.135l.133 1.666-.035.586c0 .177.013.283.03.313l.197.072c.045-.014.145-.049.145-.695l-.005-.212c-.011-3.988 4.947-9.901 4.947-9.901-3.295 3.138-4.575 6.417-5.049 8.52l-.04-.388c-.831-6.456-5.748-9.958-5.797-9.992.002 0 4.662 3.727 5.473 10.031z" class="B C"/><g class="J"><path d="M27.352 8.608c.934 1.436 1.896 2.917 1.164 6.59-.033.161.213.571.213.571.956-4.175-.136-5.854-1.101-7.338-.41-.632-.798-1.228-1.007-1.976 0 0 .308 1.502.732 2.154z" class="B"/><path d="M40.108 8.699c.739 2.53 1.486 5.507.423 10.01-.038.161.196.571.196.571 1.261-4.866.198-8.505-.577-11.163l-.42-1.516.38 2.099z" class="B"/></g><path d="M35.749 10.826c.411.716.951 1.216 1.523 1.744 1.312 1.213 2.669 2.467 2.765 6.609l.327-.006c-.097-4.281-1.569-5.642-2.869-6.843-.552-.511-1.075-.994-1.462-1.667l-.281.164z" class="B F"/><path d="M40.173 11.714c.976 1.498 1.983 3.047 1.058 7.085l.318.074c.958-4.175-.136-5.856-1.101-7.338-.409-.631-.797-1.227-1.007-1.974 0-.002.31 1.499.732 2.152z" class="B G"/><g class="F"><path d="M37.583 18.398l.318.083c1.204-4.648-.092-9.147-1.038-12.01l-.599-1.383c0 .001 2.834 7.606 1.319 13.311zm-2.519-5.852c1.108.896 1.85 1.433 2.013 4.906l.394.939c-.099-4.401-1.027-5.151-2.202-6.101-.445-.361-.906-.734-1.375-1.36.002 0 .73 1.258 1.172 1.615z" class="B"/><path d="M40.403 17.636a5710.92 5710.92 0 0 0 .111 1.84c.008.216.013.333.168.339s.172-.128.19-.283c.582-7.802 7.595-13.586 7.595-13.586-5.356 4.034-7.121 9.191-7.705 12.179l-.031-.518c-.648-6.472-8.566-12.904-8.647-12.969 0 .001 7.684 6.668 8.319 12.999z" class="B"/></g><path d="M39.473 14.989c.001.671.038 1.341.112 2.008-2.51-5.604-7.76-7.66-7.815-7.68 0 0 5.433 2.468 7.768 8.38l.28.776c.157.748.321 1.213.383 1.275l.211.023c.031-.021.067-.044.067-.146 0-.152-.081-.492-.349-1.256-.157-.8-.307-1.946-.307-3.32-.197-4.761 2.232-9.246 2.232-9.246-2.034 3.234-2.582 6.582-2.582 9.188z" class="B I"/><g class="C"><path d="M42.131 16.937c-.13.68-.178 1.255-.178 1.672 0 .4.04.662.082.749.065.129.169.153.247.131.174-.048.262-.436.262-1.155l-.063-1.288c-.002-.031-.012-.062-.015-.092.625-4.936 6.298-9.756 6.298-9.756-4.099 3.087-5.789 6.471-6.44 8.891-1.196-5.906-7.556-9.369-7.623-9.405 0-.001 6.711 4.025 7.43 10.251z" class="B"/><path d="M41.454 8.41c.872 2.513 1.869 5.74.705 10.227l.317.083c1.188-4.583-.022-8.079-.906-10.63-.258-.745-.481-1.389-.622-1.98-.002 0 .256 1.58.505 2.301z" class="B"/></g><path d="M41.183 17.239l.068.786-.083 1.031c0 .353.036.585.085.668l.209.081c.051-.018.173-.059.173-.787 0-.239-.021-.592-.055-1.004-.03-4.12 4.717-9.354 4.717-9.354-3.045 2.9-4.339 6.046-4.84 8.251-.94-6.267-5.699-9.671-5.75-9.705-.003.003 4.659 3.728 5.473 10.034z" class="B D"/><path d="M37.554 16.697c-.129.681-.179 1.255-.179 1.672 0 .401.041.661.083.749.065.13.171.153.246.132.174-.048.263-.435.263-1.154l-.063-1.289c-.003-.031-.012-.059-.015-.09.485-4.892 6.299-9.758 6.299-9.758-4.101 3.088-5.789 6.473-6.442 8.89-1.197-5.906-7.556-9.369-7.623-9.404 0 .001 6.713 4.027 7.431 10.253z" class="B C"/><g class="D"><path d="M36.995 13.445c0 1.275.103 2.617.274 4.005l-.248-.67c-2.391-6.053-8.018-8.24-8.074-8.262 0 0 5.432 2.469 7.768 8.38-.003-.002.282.761.282.761.422 1.133.422 1.133.594 1.089.166-.041.156-.107.068-.752-1.543-9.297 2.054-15.114 2.054-15.114-1.807 2.876-2.717 6.415-2.717 10.561z" class="B"/><path d="M39.293 17.523l-.06 1.172c0 .553.046.909.093 1.004l.217.108c.078-.022.186-.051.186-.765 0-.306-.02-.739-.071-1.351-.005-.047-.021-.095-.025-.143.188-6.491 6.68-12.256 6.68-12.256-4.745 3.574-6.381 8.162-6.88 11.195-1.642-6.09-10.607-12.059-11.012-12.325-.002-.001 10.049 7.092 10.873 13.362z" class="B"/></g><path d="M39.335 19.281l.317.083c1.25-4.819.401-8.239-.282-10.522l-.417-.907c0 .001 1.877 6.009.382 11.347z" class="B G"/><path d="M38.357 17.018l.134 1.667-.036.586c0 .176.013.283.031.313l.197.073c.045-.015.143-.049.143-.695l-.004-.212c-.011-3.988 4.946-9.901 4.946-9.901-3.292 3.137-4.572 6.416-5.046 8.518l-.04-.388c-.831-6.457-5.748-9.958-5.797-9.992.002-.001 4.66 3.725 5.473 10.029z" class="B J"/><path d="M37.348 11.493c.935 1.434 1.897 2.916 1.164 6.589-.032.161.212.571.212.571.958-4.175-.136-5.855-1.099-7.338-.41-.631-.798-1.228-1.009-1.976-.002 0 .307 1.502.73 2.155z" class="B C"/><path d="M12.483 23.144c.739 2.53 1.486 5.507.423 10.01-.038.161.196.571.196.571 1.26-4.866.199-8.505-.577-11.162l-.42-1.516.378 2.097z" fill="url(#N)" class="B"/><path d="M8.124 25.271c.412.716.952 1.216 1.524 1.744 1.312 1.214 2.669 2.468 2.765 6.61l.326-.007c-.097-4.281-1.569-5.642-2.868-6.843-.553-.511-1.076-.993-1.463-1.668l-.284.165z" class="B F"/><path d="M12.548 26.16c.976 1.497 1.984 3.048 1.058 7.086l.318.073c.957-4.175-.136-5.855-1.101-7.338-.41-.632-.797-1.229-1.007-1.975 0-.002.309 1.5.732 2.153z" class="B D"/><g class="F"><path d="M9.958 32.844l.318.083c1.204-4.648-.092-9.148-1.038-12.01l-.598-1.384c0 0 2.834 7.605 1.319 13.311zm-2.52-5.853c1.109.896 1.851 1.433 2.013 4.907l.394.94c-.099-4.401-1.026-5.152-2.202-6.102-.445-.36-.906-.733-1.375-1.36 0 0 .73 1.258 1.17 1.615z" class="B"/><path d="M12.779 32.082a7856.35 7856.35 0 0 0 .111 1.839c.009.216.013.333.169.34s.172-.129.19-.282c.583-7.802 7.594-13.586 7.594-13.586-5.356 4.033-7.12 9.19-7.704 12.18l-.031-.519c-.648-6.473-8.566-12.904-8.647-12.969 0-.002 7.685 6.665 8.319 12.997z" class="B"/></g><path d="M11.849 29.435a18.35 18.35 0 0 0 .112 2.008C9.45 25.84 4.2 23.784 4.146 23.763c0 0 5.432 2.468 7.768 8.381l.28.776c.157.747.321 1.212.383 1.274l.211.022c.032-.02.067-.043.067-.145 0-.152-.08-.491-.348-1.256a17.46 17.46 0 0 1-.307-3.32c-.197-4.762 2.233-9.247 2.233-9.247-2.033 3.235-2.583 6.584-2.583 9.19z" class="B I"/><path d="M13.83 22.855c.871 2.513 1.868 5.741.704 10.227l.317.082c1.188-4.582-.021-8.078-.906-10.63-.258-.746-.481-1.389-.622-1.98 0 0 .256 1.579.507 2.301z" class="B G"/><g class="C"><path d="M13.558 31.685l.068.787-.082 1.032c0 .353.035.586.085.667l.209.083c.051-.019.174-.059.174-.788 0-.239-.021-.592-.055-1.004-.03-4.12 4.717-9.354 4.717-9.354-3.047 2.9-4.339 6.047-4.841 8.251-.94-6.267-5.699-9.671-5.749-9.705-.001 0 4.659 3.727 5.473 10.033z" class="B"/><path d="M9.93 31.143c-.129.68-.179 1.255-.179 1.672 0 .401.041.661.083.749.064.129.171.153.246.132.174-.048.262-.435.262-1.155l-.062-1.289c-.003-.03-.011-.059-.015-.09.485-4.89 6.299-9.758 6.299-9.758-4.101 3.088-5.789 6.474-6.441 8.892-1.197-5.907-7.557-9.369-7.624-9.405 0 .002 6.712 4.025 7.431 10.253z" class="B"/></g><path d="M9.371 27.89c0 1.275.103 2.618.274 4.005l-.248-.67c-2.391-6.053-8.018-8.241-8.074-8.262 0 0 5.432 2.469 7.768 8.38l.282.762c.421 1.132.421 1.132.594 1.089.166-.041.157-.108.068-.752-1.543-9.295 2.055-15.111 2.055-15.111-1.808 2.876-2.719 6.415-2.719 10.561z" fill="url(#O)" class="B"/><path d="M11.668 31.968l-.061 1.173c0 .553.046.909.092 1.004l.217.108c.078-.023.186-.052.186-.765 0-.307-.019-.74-.071-1.351-.005-.048-.02-.096-.025-.144.188-6.49 6.68-12.256 6.68-12.256-4.745 3.573-6.381 8.161-6.881 11.195-1.642-6.09-10.606-12.06-11.012-12.326 0 0 10.051 7.093 10.875 13.362z" class="B C"/><path d="M11.71 33.727l.317.083c1.25-4.819.401-8.238-.282-10.522l-.417-.908s1.877 6.009.382 11.347z" class="B G"/><path d="M10.732 31.463l.134 1.665-.036.587c0 .177.013.283.031.313l.197.073c.045-.015.144-.049.144-.695l-.005-.212c-.011-3.987 4.946-9.901 4.946-9.901-3.292 3.136-4.572 6.416-5.046 8.518l-.04-.388c-.831-6.457-5.748-9.958-5.798-9.992 0 .002 4.66 3.727 5.472 10.033z" fill="url(#N)" class="B"/><path d="M9.725 25.937c.934 1.435 1.896 2.917 1.163 6.589-.032.16.213.57.213.57.957-4.175-.137-5.854-1.101-7.338-.409-.632-.797-1.227-1.008-1.975 0 .002.308 1.503.733 2.154z" class="B D"/></g><g stroke="#231f20" class="K L"><g class="E"><path d="M8.051 37.869c0-.09-.3-2.631-.928-5.202-.749-3.108-2.032-6.278-2.422-6.428-.299-.087.449 1.377.57 1.797l1.435 5.049c.537 2.333.985 5.86.985 5.86l.361-1.075z" class="B"/><path d="M7.69 38.195s-1.317-4.095-2.032-4.9c-.688-.809-5.139-3.049-5.529-3.049-.419 0 .27.119.926.599.629.476 3.737 1.94 4.275 3.106.391.899 1.913 4.335 2.093 6.246.03.451.269-.477.269-.477v-1.524z" class="B"/><path d="M8.169 40.379l.865-6.126 1.198-5.591c.208-.747-1.198 2.752-1.735 5.202l-.327 1.855c-.359 1.523-.807 4.213-.807 4.692s.746.476.807-.033z" class="B"/></g><path d="M20.016 53.595c-.562-.247-1.829-.247-2.211-.392-.151-.061.599-1.452.599-1.663v-3.884c.125-2.533.075-7.466-.183-8.205-.552-1.512-2.904-3.91-3.444-6.174.151-.578.518-.615.715-.407.553.594 3.123 5.094 3.838 4.995.182-.184.245-1.034.812-2.312.835-1.44 1.758-3.346 2.31-1.647-1.646 2.483-2.482 5.841-2.361 6.1l-.075 13.59z" fill="url(#P)" class="B"/><path d="M22.625 53.706c-.553-.234-1.833-.234-2.215-.393-.134-.049.615-1.451.615-1.66v-3.886c.111-2.534.064-7.465-.193-8.204-.544-1.512-2.904-3.91-3.447-6.173.162-.58.517-.616.715-.409.551.604 3.136 5.093 3.848 4.995.186-.184.247-1.033.798-2.311.838-1.442 1.76-3.345 2.312-1.649-1.646 2.483-2.484 5.856-2.348 6.099l-.084 13.59z" fill="url(#Q)" class="B"/><path d="M22.77 38.838l-.354-.652c-.222-.432-.899.43-.775-1.07.158-.689-.063-.27-.49-.038-.102.012-.753.235-.79-.147-.024-.234-.112-.799.186-1.011.502-.676.724.025 1.094-.38.035-.493-1.131-1.61-.209-1.389.688.048.528-.849-.013-1.085-.37-.27-.663-.097-.775.088h-.01c-.139.269-.483.848-.2.848.604 0 .357 1.144.076 1.181l-.383-.308c-.112-.208-.616-.186-.564.492.279.652.627 1.157.087 1.661-.127.011-.424-.146-.594.011-.195.21-.096.851-.233 1.232-.307.884-1.698.698-1.059-1.747.016-.063-.035-.331-.17-.258-.492.248-.123 1.291-.628 1.142-.085-.023-.085-.28-.186-.54-.268-.689-.405.429-.331.629.073.221-.06.736-.419.552-.206-.111-.221-.861-.539-.626-.306.245.195.897-.321 1.388-.502.493-.739-.751-.468-1.032.282-.296.197-.615-.343-.408-.53.211-.357-1.216-.037-1.118.33.109.87.099.726-.554-.064-.282-.628.134-.726.05-.493-.432.527-1.685.527-1.685s.05-.246-.011-.368-.098-.186-.187-.296c-.109-.16-.553.184-.701.098-.517.063-.146-.75-.059-1.438.085-.677.664-1.513 1.242-1.317s1.118.468 1.203-.391c.076-.853.616-1.625 1.897-1.797 1.277-.16 1.192.822 1.941.886.739.059.493-1.072 1.242-1.427s1.768.16 2.103.615c.333.467.467.418 1.256-.356.664-.667 1.253-.346 2.078-.099.602.173.711.935.749.997.086.16.147.319.135.515-.111 1.268.234 1.391.47 1.083.073-.086.085-.233.279-.429 0 0 .259-.211.458.022.134.149.108.603.108.603 0 .234-.405 1.057.112 1.009v.026c.529-.049.335-.099.787-.221.367-.038.505.256.48.712-.013.199-.112.506-.273.519l-.158.024c-1.142-.273-1.573.81-.628 1.168.628.073 1.391-1.081 1.514.394-.076.553-.148.553-.775.958-.12.247-.037.32.121.393.146-.012.384.087.384.247.084.184.098.504-.212.81-.639.321-.59-.356-1.019-.775-.528-.221-.296.752-.015 1.118.086.53-.258.556-.552.311-.063-.173-.432-.444-.432-.444-.161-.036-.431.062-.431.358-.011.528.076.772.405.861.15.023 1.036.209 1.036.711.035.59-.259 1.427-.839 1.208-.096.121-.55-.9-.784-1.208-.061-.085-.258-.025-.258-.025-.162.014-.32.554-.554.838-.209.258-.469.332-.604-.147-.134-1.168.209-.666-.146-1.243-.186-.172-.42.16-.42.272-.172.171-.568 1.61-1.291.268-.71-1.338-1.031.124-1.733-.268z" fill="url(#R)" class="B"/><path d="M16.638 54.509c0 .069.808.14.761-.113-.138-.809 0-2.193-.37-2.215-.506.023-.344 1.271-.391 2.329z" fill="#a78b6b" class="B"/><path d="M17.258 54.414v.003-.003z" class="B H"/><path d="M23.381 53.872c0 .069.808.138.763-.138-.14-.785 0-2.169-.37-2.191-.504.024-.344 1.245-.392 2.329zm-6.126-1.731c0 .071.808.141.761-.136-.14-.786 0-2.167-.369-2.192-.509.026-.347 1.247-.392 2.328zm-1.525.737c0 .068.808.138.761-.14-.139-.782 0-2.167-.368-2.19-.507.024-.346 1.247-.392 2.331zm8.415 1.977c0 .068.807.138.761-.141-.136-.782 0-2.166-.366-2.188-.509.021-.349 1.244-.394 2.328zm1.186-.509c0 .07.808.137.76-.139-.141-.785 0-2.168-.369-2.191-.505.024-.347 1.244-.392 2.331z" fill="#a78b6b" class="B"/><path d="M32.452 59.236c.013.17.287.076-.09.263l3.969-.041c.082-.169-.732-1.14-.87-1.957-.102-.833-.378-1.395-.289-1.737.037-.051-.117-4.746.117-6.125l.137-7.827s-.628-1.208-2.348-.596c-1.072.375-.308 7.251-.357 8.391.323 4.374.051 8.882-.268 9.632z" fill="url(#S)" class="B"/><path d="M28.578 61.269l2.364-.588.024-3.146c-.186-2.589-.12-7.626.287-8.375.871-1.548 4.564-3.999 5.412-6.312-.235-.58-.799-.629-1.123-.41-.852.613-4.916 5.209-6.041 5.108-.287-.187-.373-1.058-1.259-2.365-1.312-1.48-2.756-3.421-3.626-1.686 2.589 2.536 3.9 5.973 3.695 6.245l.266 11.528z" fill="url(#T)" class="B"/><path d="M27.6 60.02s-.105-1.021-.068-1.822c.016-.799.49-.186.476-.05s.118 1.361.05 1.566c-.087.186-.46.307-.46.307z" fill="url(#U)" class="B"/><path d="M26.454 60.324s-.101-1.017-.068-1.817c.018-.802.493-.188.477-.053s.119 1.362.05 1.567c-.087.184-.459.302-.459.302z" fill="url(#V)" class="B"/><path d="M30.322 48.906l-.614-.868c-.39-.577-1.563.441-1.327-1.449.273-.849-.119-.336-.869-.084-.169 0-1.291.221-1.36-.272-.035-.291-.186-1.038.323-1.259.869-.8 1.26.103 1.888-.375.068-.612-1.956-2.162-.371-1.786 1.207.135.917-1.022-.019-1.363-.629-.375-1.138-.205-1.328.036h-.033c-.223.323-.818 1.004-.324 1.038 1.039.068.615 1.495.12 1.512l-.646-.423c-.188-.272-1.056-.305-.987.561.492.868 1.085 1.533.155 2.111-.225 0-.734-.237-1.006-.032-.359.234-.186 1.051-.409 1.512-.545 1.106-2.93.73-1.838-2.317.02-.065-.068-.407-.29-.34-.851.256-.219 1.636-1.073 1.396-.151-.051-.151-.393-.338-.714-.444-.902-.661.493-.546.766.121.288-.102.918-.713.646-.358-.153-.39-1.107-.934-.851-.529.291.322 1.157-.561 1.733-.869.581-1.26-1.018-.786-1.341.477-.359.326-.766-.609-.547-.903.204-.616-1.598-.069-1.427.577.168 1.514.203 1.256-.63-.113-.374-1.088.103-1.256-.018-.834-.595.902-2.077.902-2.077s.085-.304-.019-.476c-.1-.152-.15-.239-.322-.392-.187-.202-.939.189-1.193.067-.901 0-.256-.987-.117-1.836s1.141-1.855 2.145-1.549 1.922.698 2.057-.375c.154-1.072 1.056-1.99 3.27-2.075 2.192-.086 2.056 1.157 3.334 1.311 1.293.153.87-1.311 2.161-1.685 1.296-.374 3.065.391 3.626 1.004.581.612.818.579 2.179-.34 1.14-.764 2.141-.305 3.556.086 1.056.288 1.242 1.259 1.312 1.343.135.221.252.426.237.664-.186 1.616.392 1.786.817 1.427.118-.099.135-.287.477-.509 0 0 .444-.238.783.067.235.207.205.785.205.785 0 .288-.716 1.293.171 1.293v.018c.932 0 .576-.087 1.36-.205.646 0 .866.375.851.969-.032.239-.205.614-.48.614l-.284.016c-1.961-.459-2.71.868-1.056 1.413 1.068.169 2.38-1.227 2.601.666-.136.695-.273.677-1.346 1.121-.199.305-.049.409.224.511.255 0 .664.152.664.354.137.257.156.647-.354 1.025-1.123.321-1.041-.528-1.788-1.089-.905-.343-.494.919 0 1.394.136.697-.445.697-.954.341-.101-.222-.751-.598-.751-.598-.288-.067-.747.02-.747.41-.019.663.119.987.713 1.123.239.05 1.77.374 1.77 1.02.067.75-.441 1.771-1.429 1.43-.172.154-.953-1.193-1.361-1.599-.12-.119-.462-.051-.462-.051-.255 0-.541.663-.95 1.002-.359.308-.782.376-1.037-.252-.24-1.499.375-.818-.255-1.583-.309-.239-.718.152-.718.288-.304.205-.969 1.989-2.228.221-1.244-1.772-1.769.029-2.994-.513z" fill="url(#W)" class="B"/><path d="M35.21 53.855c1.068.394 3.11 1.856 4.574 4.528.086.153-.118.088-.391.088 0 0-.85-1.483-2.383-2.964-.883-.851-1.751-1.123-1.87-1.123-.497-.118-.412-.696.069-.53z" fill="url(#X)" class="B"/><path d="M32.634 57.399c-.92.679-2.448 2.671-3.092 5.646-.054.173.15.036.405-.032 0 0 .391-1.668 1.432-3.505.61-1.089 1.36-1.583 1.461-1.634.445-.24.204-.766-.205-.476z" fill="url(#Y)" class="B"/><path d="M35.054 52.309c2.142 1.038 4.237 2.211 7.502 4.918.17.136-.626.257-.626.103 0 0-.546-.699-2.451-1.891-.119-.067-1.124 1.006-2.248 3.594-.086.187-.308.203-.376.152-.015 0 .103-.357.136-.461.477-1.649 1.925-3.588 1.838-3.658-2.057-1.733-3.826-2.042-3.962-2.059-.036-.545.136-.731.187-.698z" fill="url(#Z)" class="B"/></g></symbol></svg>